<?xml version="1.0" encoding="UTF-8"?>
<svg id="Layer_2" data-name="Layer 2" xmlns="http://www.w3.org/2000/svg" xmlns:xlink="http://www.w3.org/1999/xlink" viewBox="0 0 306.2 69.36">
  <defs>
    <style>
      .cls-1 {
        fill: #cdd0d8;
      }

      .cls-2 {
        fill: url(#linear-gradient);
      }
    </style>
    <linearGradient id="linear-gradient" x1="34.68" y1="74.33" x2="34.68" y2="4.98" gradientTransform="translate(0 74.33) scale(1 -1)" gradientUnits="userSpaceOnUse">
      <stop offset=".2" stop-color="#e76474"/>
      <stop offset=".3" stop-color="#e65a68"/>
      <stop offset=".52" stop-color="#e64b56"/>
      <stop offset=".74" stop-color="#e6424b"/>
      <stop offset="1" stop-color="#e64048"/>
    </linearGradient>
  </defs>
  <g id="Layer_2-2" data-name="Layer 2">
    <g id="AppleMusic">
      <g>
        <path class="cls-1" d="m231.27,49.72h-4.05v-21.22c-.07-.01-.14-.03-.21-.04-2.92,7.04-5.85,14.09-8.77,21.13h-3.21c-2.91-7.02-5.83-14.05-8.74-21.08-.3.87-.19,1.73-.21,2.59-.02.88,0,1.76,0,2.64v16c-1.37.04-2.68.01-3.97.02-.18-.58-.23-28.01-.06-29.05h5.1c1.56,3.78,3.13,7.59,4.7,11.41,1.57,3.82,3.13,7.64,4.77,11.66,1.18-2.69,2.18-5.24,3.23-7.78,1.05-2.53,2.08-5.07,3.12-7.6,1.05-2.56,2.1-5.11,3.17-7.69h5.15v29.01Z"/>
        <path class="cls-1" d="m98.02,20.7h4.89c3.47,9.63,6.96,19.28,10.47,29.02h-4.72c-.91-2.58-1.82-5.16-2.73-7.74h-11.1c-.86,2.58-1.72,5.14-2.58,7.74h-4.7c3.48-9.7,6.97-19.32,10.46-29.02Zm2.48,4.98c-.07,0-.14-.01-.21-.02-1.39,4.17-2.79,8.33-4.22,12.62,2.94,0,5.74,0,8.65,0-1.44-4.29-2.83-8.44-4.22-12.6Z"/>
        <path class="cls-1" d="m143.56,46.53v10.39h-4.27v-28.17c.52-.17,3.08-.21,4.24-.06v3.33c.05.01.1.02.15.04.14-.2.28-.4.43-.59,1.75-2.31,4.1-3.33,6.97-3.1,3.5.28,5.81,2.21,7.13,5.39.88,2.12,1.1,4.34.95,6.62-.11,1.66-.46,3.27-1.16,4.79-1.98,4.27-7.04,6.18-11.17,4.21-1.12-.54-2.03-1.33-2.75-2.33-.13-.18-.26-.36-.39-.54-.04.01-.09.02-.13.03Zm.14-7.39c-.03,1.55.25,3.03.98,4.41,1.14,2.15,3.23,3.19,5.56,2.72,1.85-.37,3.04-1.57,3.79-3.24.76-1.7.87-3.49.66-5.32-.13-1.06-.43-2.07-.98-3-1.09-1.86-2.7-2.83-4.87-2.71-2.09.12-3.49,1.28-4.35,3.13-.59,1.26-.81,2.61-.79,3.99Z"/>
        <path class="cls-1" d="m120.29,56.93h-4.26v-28.27h4.2c.07,1.11,0,2.23.05,3.53.22-.29.35-.44.45-.6,2.62-3.82,7.91-4.17,11.24-1.76,1.82,1.32,2.88,3.17,3.42,5.3.85,3.32.77,6.62-.6,9.8-1.17,2.72-3.2,4.5-6.18,4.99-2.84.47-5.41-.08-7.4-2.35-.3-.34-.55-.71-.94-1.22v10.57Zm11.2-17.67c.03-1.74-.29-3.35-1.21-4.79-1.1-1.7-2.67-2.57-4.71-2.46-1.95.11-3.34,1.14-4.22,2.85-.94,1.84-1.07,3.81-.84,5.82.13,1.09.46,2.12,1.01,3.07,1.19,2.05,3.21,2.97,5.53,2.5,1.86-.38,3.04-1.58,3.76-3.27.52-1.21.71-2.48.68-3.74Z"/>
        <path class="cls-1" d="m189.88,40.27h-14.72c-.64,2.45,1.23,5.15,3.19,5.9,2.24.85,5.77.73,7.35-2.65h3.92c-.06.27-.08.52-.16.76-1.13,3.25-3.4,5.2-6.79,5.72-2.09.32-4.18.12-6.18-.64-2.07-.79-3.67-2.18-4.59-4.18-1.89-4.13-1.82-8.3.29-12.33,1.34-2.55,3.6-3.93,6.42-4.39,1.55-.25,3.09-.17,4.61.24,2.54.69,4.4,2.22,5.56,4.58,1.07,2.18,1.25,4.5,1.1,6.99Zm-15-3.11h10.49c.04-1.92-.67-3.47-2.2-4.48-1.89-1.25-3.92-1.12-5.85.03-1.65.98-2.28,2.55-2.44,4.45Z"/>
        <path class="cls-1" d="m254.23,49.71h-4.06v-3.48s-.1-.02-.15-.02c-.12.19-.24.38-.36.57-1.41,2.18-3.38,3.3-5.99,3.15-.92-.05-1.88-.06-2.76-.32-2.84-.83-4.85-3.74-4.8-6.71.04-2.64.06-5.28.07-7.91.01-1.86,0-3.73,0-5.59v-.89h4.27c0,.32,0,.62,0,.92,0,4.01,0,8.02,0,12.03,0,.81.14,1.6.46,2.34.36.84.94,1.49,1.8,1.84,1.76.72,3.5.64,5.14-.35,1.53-.91,2.22-2.31,2.21-4.09-.02-4.04-.02-8.07-.02-12.11,0-.18.03-.36.04-.59h4.14v21.2Z"/>
        <path class="cls-1" d="m274.55,34.73h-3.93c-.05-.15-.1-.29-.14-.44-.25-1-.88-1.7-1.79-2.11-1.52-.69-3.06-.65-4.58,0-.3.13-.59.33-.83.55-1.12,1.05-1.03,2.6.25,3.44.57.37,1.25.62,1.91.8,1.52.4,3.07.7,4.6,1.1.74.2,1.47.49,2.17.81,2.98,1.35,3.35,4.15,2.58,6.5-.43,1.31-1.33,2.26-2.47,2.99-1.22.78-2.56,1.22-3.99,1.41-2.07.27-4.13.21-6.11-.55-2.26-.86-3.86-2.36-4.44-4.79-.07-.27-.08-.56-.13-.9h4.19c.03.07.08.14.1.21.36,1.43,1.33,2.24,2.71,2.58,1.41.35,2.82.32,4.2-.19.8-.3,1.46-.77,1.74-1.64.35-1.08.03-2.05-.98-2.57-.64-.33-1.33-.56-2.03-.75-1.3-.35-2.61-.63-3.91-.96-1.31-.33-2.56-.81-3.63-1.67-1.88-1.51-2.43-3.78-1.46-5.99.59-1.33,1.57-2.3,2.82-2.99,1.87-1.03,3.89-1.36,5.99-1.22,1.73.12,3.37.55,4.79,1.59,1.45,1.06,2.31,2.48,2.45,4.3,0,.1,0,.21,0,.31,0,.05-.04.09-.08.18Z"/>
        <path class="cls-1" d="m302.1,42.44h4.11c-.16.62-.27,1.2-.46,1.75-1.23,3.57-4.66,5.88-8.43,5.75-1.61-.06-3.2-.22-4.69-.9-2.34-1.07-3.91-2.87-4.71-5.28-1.09-3.27-1.12-6.57.2-9.79,1.41-3.44,4.05-5.32,7.74-5.72,1.39-.15,2.78-.2,4.16.17,3.15.83,5.67,3.63,6.11,6.83.02.12,0,.25,0,.43-1.35.05-2.66.1-3.98.14-.07-.14-.14-.25-.17-.37-.44-1.82-2.04-3.43-4.28-3.59-2.45-.17-4.31.89-5.29,3.01-.75,1.61-.93,3.32-.8,5.08.07,1.01.25,2,.66,2.94.9,2.1,2.49,3.24,4.78,3.38.84.05,1.66.02,2.44-.33,1.26-.56,2.06-1.52,2.46-2.83.07-.22.11-.44.17-.66Z"/>
        <path class="cls-1" d="m162.73,20.71h4.21v29.02c-1.41.05-2.79.06-4.21,0v-29.01Z"/>
        <path class="cls-1" d="m279.06,28.65h3.99c.17.57.25,19.43.08,21.17-.67.18-1.36.06-2.04.08-.67.02-1.34,0-2,0-.18-.6-.21-20.44-.04-21.26Z"/>
        <path class="cls-1" d="m283.64,22.84c0,1.37-1.17,2.46-2.65,2.44-1.34-.01-2.35-1.04-2.34-2.37.01-1.4,1.13-2.59,2.45-2.6,1.48,0,2.55,1.05,2.55,2.53Z"/>
      </g>
      <g id="Layer_1-2" data-name="Layer 1-2">
        <path class="cls-2" d="m.01,34.3C.01,29.84.06,25.38,0,20.92c-.05-4.26,1.2-8.1,3.55-11.6C6.94,4.25,11.72,1.32,17.67.24c.9-.16,1.84-.23,2.75-.23,9.43,0,18.86,0,28.29,0,5.32,0,9.91,1.97,13.84,5.49,3.64,3.25,5.73,7.38,6.56,12.15.17.97.23,1.97.23,2.96.02,9.27-.02,18.53.02,27.8.02,4.6-1.4,8.7-4.08,12.38-3.39,4.66-8.02,7.32-13.63,8.3-1.05.18-2.14.23-3.21.23-9.15.02-18.3,0-27.45.02-5.46,0-10.15-1.93-14.18-5.51-3.59-3.19-5.64-7.25-6.5-11.92-.2-1.1-.28-2.23-.28-3.35-.03-4.75,0-9.52,0-14.27h0Zm28.53,3.95h.07v-9.36c0-.95.21-1.22,1.15-1.41,4.18-.85,8.34-1.68,12.52-2.52.72-.14,1.44-.26,2.17-.36.4-.05.61.13.71.52.04.14.07.3.07.45v12.59c0,.84-.42,1.35-1.24,1.54-.74.17-1.48.32-2.22.48-1.13.24-2.24.48-3.2,1.15-1.45,1.02-2.16,2.43-1.92,4.2.23,1.73,1.2,2.93,2.87,3.51,1.02.36,2.08.24,3.12.08,1.01-.15,1.98-.45,2.8-1.11,1.41-1.11,1.98-2.59,1.98-4.36,0-4.69.03-9.37.04-14.06v-11.95c0-.48-.05-.96-.12-1.42-.09-.57-.45-.89-1.01-.87-.68.04-1.38.11-2.05.24-4.47.89-8.95,1.8-13.41,2.7-1.05.21-2.1.45-3.14.71-.71.17-1.16.64-1.23,1.4-.04.4-.06.82-.06,1.22v19.77c0,.15,0,.31,0,.45-.1,1.04-.48,1.47-1.49,1.69-.76.16-1.53.32-2.29.49-1.2.26-2.39.59-3.35,1.41-1.3,1.13-1.77,2.59-1.42,4.23.34,1.61,1.32,2.74,2.93,3.22.83.25,1.68.22,2.54.11,1.1-.14,2.16-.43,3.08-1.08,1.45-1.02,2.11-2.49,2.14-4.2.05-3.16,0-6.31,0-9.47h-.02Z"/>
      </g>
    </g>
  </g>
</svg>