<?xml version="1.0" encoding="utf-8"?>
<svg viewBox="0 0 60.06 42.15" xmlns="http://www.w3.org/2000/svg" xmlns:xlink="http://www.w3.org/1999/xlink">
  <defs>
    <linearGradient id="linear-gradient-2" x1="0" y1="21.08" x2="60.06" y2="21.08" gradientTransform="matrix(0.721243,0,0,0.560113,12.579659,15.730394)" xlink:href="#linear-gradient"/>
    <linearGradient id="linear-gradient" x1="3" y1="3.75" x2="48.06" y2="3.75" gradientUnits="userSpaceOnUse" gradientTransform="matrix(1, 0, 0, 1, 3.555999, 7.536106)">
      <stop offset="0" stop-color="#007bff" id="stop20"/>
      <stop offset="0" stop-color="#017aff" id="stop22"/>
      <stop offset="0.13" stop-color="#2f6aff" id="stop24"/>
      <stop offset="0.26" stop-color="#565dff" id="stop26"/>
      <stop offset="0.39" stop-color="#7652ff" id="stop28"/>
      <stop offset="0.52" stop-color="#8e49ff" id="stop30"/>
      <stop offset="0.67" stop-color="#a043ff" id="stop32"/>
      <stop offset="0.82" stop-color="#aa40ff" id="stop34"/>
      <stop offset="1" stop-color="#ae3fff" id="stop36"/>
    </linearGradient>
    <linearGradient id="linear-gradient-2-3" x1="0" y1="21.08" x2="60.060001" y2="21.08" gradientTransform="matrix(0.721243,0,0,0.560113,12.579659,15.730394)" xlink:href="#linear-gradient"/>
    <style id="style18">
      .cls-1 {
        fill: url(#linear-gradient-2);
      }

      .cls-2 {
        fill: url(#linear-gradient-3);
      }

      .cls-3 {
        fill: url(#linear-gradient);
      }
    </style>
  </defs>
  <g id="Layer_1-2" data-name="Layer 1" transform="matrix(-0.724681, 0.697697, -0.724681, -0.697697, 70.735062, 17.005016)">
    <g id="_1" data-name="1">
      <path class="cls-1" d="M 50.622,25.418 H 12.72 c -1.494,0 -2.705,-0.942 -2.705,-2.101 0,-1.159 1.211,-2.1 2.705,-2.1 h 37.902 c 1.493,0 2.704,0.941 2.704,2.1 0,1.159 -1.211,2.101 -2.704,2.101 z" style="fill:url(#linear-gradient-2)" transform="rotate(90,31.670501,23.317499)" id="path42"/>
    </g>
  </g>
  <g id="Layer_1-2-2" data-name="Layer 1" transform="matrix(-0.697014, -0.723354, 0.751331, -0.67106, 35.484432, 60.998051)">
    <g id="_1-7" data-name="1">
      <path class="cls-1" d="M 50.622,25.418 H 12.72 c -1.494,0 -2.705,-0.942 -2.705,-2.101 0,-1.159 1.211,-2.1 2.705,-2.1 h 37.902 c 1.493,0 2.704,0.941 2.704,2.1 0,1.159 -1.211,2.101 -2.704,2.101 z" style="fill:url(#linear-gradient-2-3)" transform="rotate(90,31.670501,23.317499)" id="path42-0"/>
    </g>
  </g>
</svg>