<?xml version="1.0" encoding="UTF-8"?>
<svg id="Layer_2" data-name="Layer 2" xmlns="http://www.w3.org/2000/svg" viewBox="0 0 75.01 75.01">
  <defs>
    <style>
      .cls-1 {
        fill: #04d647;
      }

      .cls-2 {
        fill: #161616;
      }
    </style>
  </defs>
  <g id="Layer_1-2" data-name="Layer 1">
    <g>
      <rect class="cls-2" width="75.01" height="75.01" rx="21.19" ry="21.19"/>
      <circle class="cls-2" cx="37.51" cy="37.51" r="21.39" transform="translate(-7.61 65.39) rotate(-76.72)"/>
      <path class="cls-1" d="m37.51,11.06c-14.61,0-26.45,11.84-26.45,26.45s11.84,26.45,26.45,26.45,26.45-11.84,26.45-26.45-11.84-26.45-26.45-26.45Zm12.19,38.15c-.3.5-.84.77-1.38.77-.29,0-.58-.08-.84-.24-3.37-2.05-7.18-3.28-11.32-3.65-3.76-.33-7.81.04-12.04,1.11-.86.22-1.74-.31-1.96-1.17-.22-.86.31-1.74,1.17-1.96,4.58-1.16,9-1.56,13.12-1.19,4.63.41,8.91,1.79,12.71,4.11.76.46,1,1.46.54,2.22Zm3.14-7.25c-.38.65-1.07,1.02-1.78,1.02-.35,0-.71-.09-1.03-.28-3.91-2.28-8.12-3.7-12.53-4.23-4.4-.53-8.98-.17-13.61,1.07-.05.01-.11.03-.16.04-1.1.3-2.22-.35-2.52-1.44-.3-1.1.35-2.22,1.44-2.52.06-.02.12-.03.18-.05,10.37-2.78,20.49-1.54,29.27,3.58.98.57,1.31,1.83.74,2.81Zm1.81-7.22c-.37,0-.74-.08-1.09-.26-4.75-2.44-9.84-3.93-15.15-4.42-5.23-.49-10.65-.02-16.11,1.4-1.28.33-2.58-.43-2.91-1.71-.33-1.28.43-2.58,1.71-2.91,6-1.56,11.98-2.08,17.76-1.54,5.92.55,11.6,2.21,16.89,4.93,1.17.6,1.63,2.04,1.03,3.21-.42.82-1.26,1.3-2.12,1.3Z"/>
    </g>
  </g>
</svg>