<?xml version="1.0" encoding="UTF-8"?>
<svg id="Layer_2" data-name="Layer 2" xmlns="http://www.w3.org/2000/svg" xmlns:xlink="http://www.w3.org/1999/xlink" viewBox="0 0 72.08 72.08">
  <defs>
    <style>
      .cls-1 {
        fill: url(#linear-gradient);
      }
    </style>
    <linearGradient id="linear-gradient" x1="36.04" y1="0" x2="36.04" y2="72.08" gradientUnits="userSpaceOnUse">
      <stop offset=".2" stop-color="#e76474"/>
      <stop offset=".3" stop-color="#e65a68"/>
      <stop offset=".52" stop-color="#e64b56"/>
      <stop offset=".74" stop-color="#e6424b"/>
      <stop offset="1" stop-color="#e64048"/>
    </linearGradient>
  </defs>
  <g id="Layer_1-2" data-name="Layer 1">
    <path class="cls-1" d="m.01,35.65C.01,31.01.06,26.38,0,21.74c-.05-4.43,1.25-8.42,3.69-12.06C7.21,4.42,12.18,1.37,18.36.25c.94-.17,1.91-.24,2.86-.24C31.02,0,40.82,0,50.62.01c5.53.01,10.3,2.05,14.38,5.71,3.78,3.38,5.95,7.67,6.82,12.63.18,1.01.24,2.05.24,3.08.02,9.63-.02,19.26.02,28.89.02,4.78-1.46,9.04-4.24,12.87-3.52,4.84-8.33,7.61-14.17,8.63-1.09.19-2.22.24-3.34.24-9.51.02-19.02,0-28.53.02-5.67.01-10.55-2.01-14.74-5.73-3.73-3.31-5.86-7.53-6.75-12.39-.21-1.14-.29-2.32-.29-3.48-.03-4.94-.01-9.89-.01-14.83h0Zm29.65,4.11s.05,0,.07,0c0-3.24,0-6.49,0-9.73,0-.99.22-1.27,1.19-1.47,4.34-.88,8.67-1.75,13.01-2.62.75-.15,1.5-.27,2.26-.37.42-.05.63.13.74.54.04.15.07.31.07.47,0,4.36,0,8.72,0,13.08,0,.87-.44,1.4-1.29,1.6-.77.18-1.54.33-2.31.5-1.17.25-2.33.5-3.33,1.2-1.51,1.06-2.24,2.53-2,4.36.24,1.8,1.25,3.05,2.98,3.65,1.06.37,2.16.25,3.24.08,1.05-.16,2.06-.47,2.91-1.15,1.47-1.15,2.06-2.69,2.06-4.53,0-4.87.03-9.74.04-14.61,0-4.14,0-8.28,0-12.42,0-.5-.05-1-.12-1.48-.09-.59-.47-.92-1.05-.9-.71.04-1.43.11-2.13.25-4.65.92-9.3,1.87-13.94,2.81-1.09.22-2.18.47-3.26.74-.74.18-1.21.66-1.28,1.45-.04.42-.06.85-.06,1.27,0,6.85,0,13.7,0,20.55,0,.16,0,.32-.01.47-.1,1.08-.5,1.53-1.55,1.76-.79.17-1.59.33-2.38.51-1.25.27-2.48.61-3.48,1.47-1.35,1.17-1.84,2.69-1.48,4.4.35,1.67,1.37,2.85,3.05,3.35.86.26,1.75.23,2.64.11,1.14-.15,2.24-.45,3.2-1.12,1.51-1.06,2.19-2.59,2.22-4.37.05-3.28.01-6.56.01-9.84Z"/>
  </g>
</svg>