<?xml version="1.0" encoding="UTF-8"?>
<svg id="Layer_2" data-name="Layer 2" xmlns="http://www.w3.org/2000/svg" xmlns:xlink="http://www.w3.org/1999/xlink" viewBox="0 0 980.01 79.59">
  <defs>
    <style>
      .cls-1 {
        fill: #cdd0d8;
      }

      .cls-2 {
        clip-path: url(#clippath);
      }

      .cls-3 {
        fill: none;
      }

      .cls-4 {
        fill: url(#linear-gradient);
      }
    </style>
    <clipPath id="clippath">
      <path class="cls-3" d="m278.39,47.98l-1.13,10.16,1.13,10.16c0,.56.56.56.56.56.56,0,.56-.56.56-.56l1.69-10.16-1.69-10.16c0-.56-.56-.56-.56-.56,0,0-.56,0-.56.56m6.77-6.21l-1.69,16.37,1.69,16.37c0,.56.56.56.56.56.56,0,.56-.56.56-.56l2.26-16.37-2.26-16.37c0-.56-.56-.56-.56-.56h0l-.56.56m21.45-2.26l-1.13,18.63,1.13,19.76c0,.56.56,1.13,1.13,1.13s1.13-.56,1.13-1.13l2.26-19.76-1.69-18.63c0-.56-.56-1.13-1.13-1.13-1.13,0-1.69.56-1.69,1.13m-14.11-1.13l-1.69,19.76,1.69,18.63c0,.56.56,1.13,1.13,1.13,0,0,.56-.56.56-1.13l1.69-18.63-1.69-19.76c0-.56-.56-1.13-1.13-1.13,0,.56-.56.56-.56,1.13m6.77-.56l-1.69,20.32,1.69,19.19c0,.56.56,1.13,1.13,1.13s1.13-.56,1.13-1.13l1.69-19.19-1.69-20.32c0-.56-.56-1.13-1.13-1.13s-.56.56-1.13,1.13m14.68-10.16l-1.69,30.48,1.69,19.76c0,.56.56,1.13,1.13,1.13,1.13,0,1.69-.56,1.69-1.13l1.69-19.76-1.69-30.48c0-.56-.56-1.13-1.13-1.13-1.13,0-1.69.56-1.69,1.13m7.34-6.77l-1.13,37.25,1.13,19.76c0,1.13.56,1.69,1.69,1.69.56,0,1.69-.56,1.69-1.69l1.69-19.76-1.69-37.25c0-1.13-.56-1.69-1.69-1.69s-1.69.56-1.69,1.69m348.27-2.26v32.74c-.56-1.13-2.26-3.95-3.39-5.64l-18.06-27.09h-9.6v51.37h10.16v-33.87c.56,1.13,2.26,3.95,3.39,5.64l18.63,28.22h9.03V18.63h-10.16Zm33.87,10.16h5.64c10.72,0,15.24,5.08,15.24,15.8,0,9.6-5.08,15.8-15.8,15.8h-5.08s0-31.61,0-31.61Zm-10.16,41.21h15.24c12.98,0,26.53-7.34,26.53-25.4s-10.72-25.4-25.4-25.4h-16.37v-.56s0,51.37,0,51.37Zm101.04-51.37v51.37h31.05v-10.16h-20.32V18.63h-10.72Zm154.66,10.16h5.64c10.72,0,15.24,5.08,15.24,15.8,0,9.6-5.08,15.8-15.8,15.8h-5.08v-31.61Zm-10.16,41.21h15.24c11.29,0,23.14-5.64,25.97-19.19v-12.98c-2.26-13.55-11.85-18.63-24.84-18.63h-16.37v-.56s0,51.37,0,51.37Zm-455.52-36.69c0,10.16,6.77,12.98,15.8,15.24,9.6,2.26,11.29,3.39,11.29,6.77,0,3.95-2.82,5.64-9.03,5.64-5.08,0-9.6-1.69-12.98-5.64l-7.34,6.77c3.95,5.64,11.29,9.6,19.76,9.6,14.11,0,20.32-6.77,20.32-16.37,0-11.29-9.03-14.11-16.93-15.8s-10.16-2.82-10.16-6.21c0-2.26,1.69-4.52,7.34-4.52,4.52,0,8.47,1.69,11.85,5.08l7.34-7.34c-5.08-5.08-10.72-7.9-18.63-7.9h-1.69c-9.6,0-16.93,5.64-16.93,14.68m56.45,11.29c0-9.03,3.39-16.37,11.85-16.37s11.85,7.34,11.85,16.37-3.39,16.37-11.85,16.37-11.85-7.34-11.85-16.37m-10.72,0c0,15.8,8.47,26.53,22.01,26.53s22.58-10.72,22.58-26.53-8.47-26.53-22.58-26.53c-13.55,0-22.01,10.72-22.01,26.53m86.36-26.53h0v29.35c0,8.47-3.95,13.55-10.72,13.55s-10.72-5.08-10.72-13.55v-28.79h-10.16v28.79c0,14.68,8.47,23.14,20.88,23.14s20.88-8.47,20.88-23.71v-28.79h-10.16Zm128.13,26.53c0,16.37,9.03,26.53,22.58,26.53,9.6,0,15.24-4.52,19.19-11.85l-8.47-5.08c-2.82,4.52-5.64,6.77-10.16,6.77-7.9,0-12.42-6.77-12.42-16.37s4.52-16.37,11.85-16.37c4.52,0,7.34,2.26,9.6,5.64l9.6-4.52c-3.39-6.77-9.03-11.29-18.63-11.29-13.55,0-23.14,10.72-23.14,26.53m97.09,0c0-9.03,3.39-16.37,11.85-16.37s11.85,7.34,11.85,16.37-3.39,16.37-11.85,16.37-11.85-7.34-11.85-16.37m-10.72,0c0,15.8,8.47,26.53,22.01,26.53s22.01-10.72,22.01-26.53-8.47-26.53-22.01-26.53c-13.55,0-22.01,10.72-22.01,26.53m85.8-26.53h0v29.35c0,8.47-3.95,13.55-10.72,13.55s-10.72-5.08-10.72-13.55v-28.79h-10.16v28.79c0,14.68,8.47,23.14,20.88,23.14s20.88-8.47,20.88-23.71v-28.79h-10.16Zm-564.46,1.13l-1.13,38.95,1.13,18.63c0,1.13,1.13,2.26,2.26,2.26s2.26-1.13,2.26-2.26l1.13-18.63-1.13-39.51c0-1.13-1.13-2.26-2.26-2.26-1.69.56-2.26,1.13-2.26,2.82m-22.58-1.69l-1.13,40.64,1.13,19.19c0,1.13.56,1.69,1.69,1.69s1.69-.56,1.69-1.69l1.13-19.19-1.13-40.64c0-1.13-.56-1.69-1.69-1.69s-1.69,1.13-1.69,1.69m14.68,0l-1.13,40.64,1.13,19.19c0,1.13,1.13,2.26,2.26,2.26s2.26-1.13,2.26-2.26l1.13-19.19-1.13-40.64c0-1.13-1.13-2.26-2.26-2.26-1.13,0-2.26,1.13-2.26,2.26m-7.34-1.13l-1.13,41.77,1.13,19.19c0,1.13.56,1.69,1.69,1.69s1.69-.56,1.69-1.69l1.13-19.19-1.13-41.77c0-1.13-1.13-1.69-1.69-1.69-.56,0-1.69.56-1.69,1.69m22.58-5.08l-1.13,46.85,1.13,18.63c0,1.13,1.13,2.26,2.26,2.26s2.26-1.13,2.26-2.26l1.13-18.63-1.13-46.85c0-1.13-1.13-2.26-2.26-2.26s-2.26,1.13-2.26,2.26m7.9-3.95l-1.13,50.8,1.13,18.63c0,1.13,1.13,2.26,2.26,2.26s2.26-1.13,2.26-2.26l1.13-18.63-1.13-50.8c0-1.13-1.13-2.26-2.26-2.26h-.56c-1.13,0-1.69,1.13-1.69,2.26m9.03-5.08c-1.69.56-2.26,1.13-2.26,2.82v71.69c0,1.13,1.13,2.26,2.26,2.82h62.65c12.42,0,22.58-10.16,22.58-22.58s-10.16-22.58-22.58-22.58c-2.82,0-6.21.56-8.47,1.69-1.69-20.32-18.63-36.13-39.51-36.13h-2.82c-3.95,0-7.9,1.13-11.85,2.26"/>
    </clipPath>
    <linearGradient id="linear-gradient" x1="-275.77" y1="1597.48" x2="-270.12" y2="1597.48" gradientTransform="translate(-98663.87 16937.26) rotate(90) scale(62.16 -62.16)" gradientUnits="userSpaceOnUse">
      <stop offset="0" stop-color="#f8a01d"/>
      <stop offset=".71" stop-color="#f26e23"/>
      <stop offset="1" stop-color="#ef5826"/>
    </linearGradient>
  </defs>
  <g id="Layer_1-2" data-name="Layer 1">
    <g>
      <path class="cls-1" d="m130.2,42.26v18.69h-5.81v-28.53c2.28,0,4.51-.04,6.74.04.33.01.74.48.96.83,3.36,5.4,6.69,10.81,10.03,16.22.14.22.35.4.7.81v-17.84c1.85,0,3.62-.04,5.38.05.18,0,.47.76.47,1.17.03,7.53.01,15.06.01,22.59,0,1.29-.02,2.58,0,3.87.01.64-.22.89-.87.88-1.5-.03-3,.05-4.49-.03-.41-.02-.96-.33-1.18-.68-3.71-5.77-7.37-11.56-11.05-17.34-.18-.29-.41-.55-.62-.82-.09.03-.18.06-.28.1Z"/>
      <path class="cls-1" d="m207.15,32.46c2.13,0,4.21-.06,6.27.05.49.03,1.1.55,1.39,1.01,3.42,5.4,6.79,10.84,10.18,16.26.06.1.14.19.44.57v-17.8h5.95c0,.53,0,1.05,0,1.57,0,8.56-.03,17.13,0,25.69,0,.94-.25,1.26-1.19,1.21-1.2-.07-2.42-.09-3.62,0-1.05.09-1.67-.32-2.21-1.19-3.6-5.73-7.24-11.44-10.87-17.16-.11-.17-.23-.33-.57-.81-.04.67-.08,1-.08,1.32,0,5.53-.03,11.06,0,16.58,0,1.01-.33,1.29-1.3,1.23-1.44-.08-2.89-.02-4.41-.02v-28.53Z"/>
      <path class="cls-1" d="m198.68,46.78c.39,9.26-7.08,15.1-15.07,14.94-8.06-.16-14.45-6.63-14.41-14.92.04-8.69,6.34-14.98,14.95-14.99,8.01-.02,14.92,6.16,14.54,14.97Zm-6.04.35c-.03-.73-.03-1.11-.07-1.48-.43-3.96-2.52-6.62-6.34-7.78-3.28-1-6.06.06-8.37,2.44-2.73,2.81-3.24,7.55-1.29,11.13,2.32,4.26,7.45,5.73,11.67,3.33,3.1-1.77,4.26-4.6,4.4-7.64Z"/>
      <path class="cls-1" d="m55.43,41.22c-.81-3.72-4.95-5.31-7.72-3.17-.9.7-1.56,1.58-1.37,2.76.2,1.25,1.05,2.09,2.27,2.4,1.65.41,3.33.69,4.99,1.07,3.59.82,6.43,2.61,7.37,6.41,1.09,4.4-1.2,8.64-5.64,10.24-3.67,1.32-7.38,1.12-10.89-.65-2.73-1.38-4.28-3.71-5.03-6.64-.2-.79.04-1.2.78-1.4,1.2-.33,2.41-.63,3.6-.98.72-.21,1.01.03,1.22.75,1,3.46,4.37,5.17,7.76,4,1.46-.5,2.38-1.59,2.42-2.86.04-1.17-.79-2.32-2.29-2.79-1.5-.47-3.07-.73-4.6-1.08-.57-.13-1.14-.25-1.69-.42-3.1-.98-5.41-2.81-6.05-6.15-.65-3.37.37-6.24,2.99-8.5,3.54-3.06,10.43-3.21,14.09-.29,1.52,1.21,2.51,2.77,3.01,4.62.09.34-.24,1.09-.54,1.2-1.5.57-3.06.99-4.69,1.48Z"/>
      <path class="cls-1" d="m97.72,32.49c.95,0,1.78,0,2.6,0,4.74,0,9.48,0,14.23-.04.9,0,1.27.17,1.21,1.16-.09,1.4-.02,2.82-.02,4.32-.41.05-.73.11-1.04.11-3.33,0-6.66.04-9.98-.02-1-.02-1.33.29-1.26,1.29.08,1.24.09,2.5.02,3.74-.05.94.29,1.22,1.21,1.21,3.2-.04,6.4-.02,9.87-.02,0,1.52.03,3.04-.04,4.55,0,.18-.61.47-.94.47-2.87.03-5.74.06-8.61-.02-1.22-.04-1.64.35-1.52,1.55.1,1.07.1,2.16.03,3.24-.07,1.07.24,1.46,1.38,1.43,3.24-.08,6.49,0,9.73-.06.93-.02,1.27.23,1.18,1.19-.09,1.07-.09,2.16-.02,3.24.06.93-.24,1.2-1.18,1.2-4.78-.05-9.57-.02-14.35-.02-2.51,0-2.53,0-2.53-2.54,0-8.28,0-16.55,0-24.83,0-.33.03-.65.06-1.17Z"/>
      <path class="cls-1" d="m90.53,32.57c0,1.67.04,3.28-.04,4.88-.01.22-.62.57-.95.58-2.24.05-4.49.07-6.74,0-1.04-.03-1.35.29-1.34,1.34.07,6.82.05,13.64.11,20.46,0,.94-.26,1.26-1.19,1.2-1.16-.06-2.33-.06-3.49.02-.92.07-1.22-.21-1.21-1.17.05-6.69.03-13.39.05-20.08,0-1.75.02-1.76-1.74-1.75-2.04,0-4.08-.02-6.11.04-.83.02-1.22-.14-1.18-1.08.07-1.44.02-2.89.02-4.44h23.82Z"/>
      <path class="cls-1" d="m.09,32.47c1.77,0,3.43-.04,5.08.05.25.01.67.63.68.97.05,3.29.03,6.57.02,9.86,0,3.62,0,7.24-.05,10.86-.02.97.25,1.3,1.27,1.27,3.2-.08,6.41-.04,9.61-.05.49,0,.97,0,1.53,0v5.59c-1.49,0-2.94,0-4.38,0-4.2,0-8.41-.01-12.61.02C.35,61.05,0,60.83,0,59.86c.03-8.78.02-17.56.02-26.34,0-.29.03-.57.07-1.06Z"/>
      <path class="cls-1" d="m25.96,32.52h5.59c.03.43.07.82.07,1.22,0,8.73-.02,17.45,0,26.18,0,.77-.15,1.15-1.02,1.11-1.33-.05-2.66.05-3.99-.02-.3-.02-.83-.46-.83-.7-.03-9.18,0-18.36,0-27.55,0-.03.04-.07.16-.24Z"/>
    </g>
    <g class="cls-2">
      <rect class="cls-4" x="277.26" width="702.75" height="79.59"/>
    </g>
  </g>
</svg>