<?xml version="1.0" encoding="utf-8"?>
<svg id="Layer_2" data-name="Layer 2" viewBox="0 1.268 697.772 108.662" xmlns="http://www.w3.org/2000/svg">
  <defs>
    <style>
      .cls-1 {
        fill: #cdd0d8;
      }

      .cls-2 {
        fill: #17d65e;
      }
    </style>
    <view id="view-1" viewBox="166.426 187.229 1.015 0.507">
      <title>View 1</title>
    </view>
  </defs>
  <g id="Layer_1-2" data-name="Layer 1" transform="matrix(1, 0, 0, 1, 40, 0)">
    <g transform="matrix(1, 0, 0, 1, 15.856112, 0.991007)">
      <path class="cls-2" d="m312.71,109.93c-30.3.34-55.7-24.56-54.82-56.48C258.69,23.94,282.44-.9,314.34.03c29.51.86,53.08,24.35,53.06,55-.03,31.77-25.09,55.03-54.69,54.9Zm-9.29-80.99c-1.63.11-4.4.36-7.18.48-5.38.23-10.64,1.14-15.81,2.57-1.22.34-2.47.83-3.51,1.53-2.04,1.38-2.61,4.08-1.52,6.21,1.13,2.19,3.71,3.35,5.97,2.67,6.32-1.9,12.83-2.75,19.39-2.95,4.68-.14,9.4.06,14.06.48,4.08.37,8.15,1.08,12.15,1.95,6.39,1.4,12.52,3.57,18.2,6.92,2.4,1.41,5.41.48,6.81-1.92,1.43-2.44.92-5.06-1.64-6.73-2.18-1.42-4.53-2.63-6.92-3.67-12.39-5.36-25.45-7.34-40.01-7.55Zm37.32,37.6c2.39-.19,4.3-2.09,4.25-4.39-.04-1.85-1.05-3.09-2.58-3.99-4.28-2.5-8.75-4.58-13.48-6.1-8.04-2.59-16.24-4.14-24.7-4.03-3.73.05-7.49.16-11.17.7-3.92.57-7.79,1.56-11.62,2.6-1.56.42-2.61,1.7-2.81,3.48-.35,3.19,3.01,5.45,5.79,4.5,5.66-1.92,11.58-2.59,17.52-2.66,3.64-.04,7.3.26,10.92.68,9.04,1.05,17.63,3.57,25.51,8.25.72.43,1.58.64,2.38.95Zm-37.58-.58c-4.45-.13-9.67.54-14.86,1.49-1.87.34-3.75.78-5.5,1.49-1.83.74-2.4,2.35-1.79,3.99.59,1.59,2.41,2.5,4.13,2.23,5.32-.81,10.63-1.81,15.99-2.25,5.77-.48,11.51.32,17.18,1.55,5.26,1.14,10.05,3.39,14.72,5.95,1.82,1,3.62.55,4.65-1.08,1.01-1.6.64-3.28-1.1-4.54-.97-.7-2.01-1.33-3.08-1.88-9.24-4.8-19.08-7.09-30.34-6.94Z"/>
      <path class="cls-2" d="m591.01,67.84c.27-.85.51-1.71.81-2.56,2.54-7.29,5.11-14.56,7.63-21.86.32-.92.92-1.25,1.76-1.27,2.37-.03,4.74-.06,7.11,0,1.38.03,1.64.56,1.04,2.14-1.45,3.85-2.94,7.68-4.41,11.52-3.15,8.18-6.31,16.35-9.45,24.53-1.15,3-2.42,5.91-4.6,8.35-1.74,1.96-3.95,2.86-6.45,3.14-3.54.39-6.96-.12-10.24-1.53-1.29-.56-1.46-1-.86-2.31.69-1.51,1.45-2.99,2.06-4.53.42-1.06,1.06-1.05,1.98-.81,1.44.36,2.89.82,4.35.87,2.65.1,4.48-2.76,3.49-5.17-3.61-8.75-7.22-17.5-10.8-26.27-.44-1.07-1.06-1.54-2.27-1.46-1.61.11-3.24.07-4.87.01-.98-.03-1.34.18-1.33,1.32.07,9.15.04,18.3.06,27.46,0,.84-.33,1.22-1.18,1.21-2.45-.02-4.9-.02-7.36,0-1.01,0-1.26-.54-1.26-1.43.02-9.03,0-18.06.05-27.08,0-1.06-.21-1.58-1.37-1.46-.66.07-1.33-.02-2,.02-.99.06-1.46-.31-1.43-1.36.05-1.91.04-3.83.01-5.74-.01-1.04.4-1.51,1.49-1.46,1.02.05,2.34.29,2.98-.23.52-.42.17-1.85.28-2.83.27-2.49.73-4.93,2.12-7.09,1.77-2.75,4.47-3.98,7.54-4.25,2.81-.25,5.64-.16,8.41.61.9.25,1.38.7,1.39,1.62.02,1.95.06,3.91.02,5.86-.02.92-.49,1.31-1.5,1.02-1.07-.31-2.17-.54-3.28-.65-3.26-.3-4.58.77-5.11,4.01-.3,1.85-.12,2.01,1.72,1.99,3.95-.04,7.91-.01,11.86-.06,1.03-.01,1.51.53,1.83,1.38,1.74,4.58,3.5,9.15,5.23,13.73,1.25,3.3,2.49,6.6,3.74,9.9.1.26.29.48.44.73.12,0,.23,0,.35,0Z"/>
      <path class="cls-2" d="m426.39,66.97c0-7.65,0-15.3,0-22.96,0-1.82.08-1.89,1.91-1.89,2.04,0,4.08.03,6.11,0,1.06-.02,1.56.42,1.5,1.48-.04.66-.12,1.33-.08,1.99.02.33.25.65.39.97.27-.14.61-.22.8-.43,4.55-5.25,12.06-5.85,18.09-3.11,5.61,2.55,8.87,6.99,10.07,12.95.92,4.54.89,9.12-.72,13.51-2.5,6.79-7.32,10.8-14.63,11.66-4.91.58-9.17-.78-12.86-4.04-.25-.22-.61-.31-.92-.46-.09.34-.26.68-.26,1.02.03,4.28.08,8.56.14,12.84.01.9-.27,1.4-1.29,1.38-2.32-.04-4.65-.03-6.98-.01-1.21,0-1.28-.75-1.28-1.67.01-7.74,0-15.47,0-23.21Zm19.61,5.6c2.49.18,4.63-.7,6.39-2.45,3.62-3.61,4.21-8,2.87-12.68-1.11-3.88-3.73-6.55-7.79-7.22-4.36-.72-7.64,1.17-9.92,4.92-1.42,2.34-1.83,4.87-1.61,7.54.47,5.7,5.01,10.26,10.06,9.89Z"/>
      <path class="cls-2" d="m403.61,29.27c6.38.18,12.07,2.16,17.18,5.94.91.67,1.01,1.19.3,2.1-1.29,1.68-2.46,3.45-3.65,5.2-.6.87-1.16,1.12-2.13.39-2.77-2.12-5.81-3.83-9.3-4.26-2.09-.26-4.3-.09-6.39.29-2.04.37-3.79,2.57-3.9,4.25-.15,2.37.95,4.1,3.08,4.91,2.97,1.14,6.03,2.09,9.09,2.97,3.21.92,6.35,1.95,9.21,3.71,3.86,2.38,5.75,5.83,5.86,10.35.07,2.79-.23,5.49-1.6,7.96-2.31,4.16-5.95,6.55-10.52,7.49-6.45,1.33-12.76.65-18.73-2.07-2.58-1.17-4.92-2.91-7.26-4.55-1.25-.88-1.16-1.25-.19-2.43,1.13-1.38,2.26-2.77,3.42-4.13,1.45-1.69,1.58-1.69,3.3-.33,2.16,1.71,4.39,3.3,7.05,4.16,3.59,1.17,7.21,1.7,10.87.41,2.16-.76,3.59-2.27,3.82-4.62.24-2.34-1.02-4.01-3.04-4.8-2.84-1.12-5.84-1.84-8.74-2.82-2.9-.98-5.87-1.85-8.64-3.14-3.82-1.77-6.19-4.83-6.67-9.13-.44-3.94-.07-7.69,2.34-11.05,2.46-3.44,5.87-5.33,9.91-6.16,1.74-.35,3.53-.44,5.3-.64Z"/>
      <path class="cls-2" d="m488.63,81.36c-11.7,0-20.4-8.55-20.26-20.19.13-11.02,8.77-19.86,20.46-19.73,11.44.13,20.08,8.06,20.17,19.84.09,11.58-8.25,19.99-20.37,20.09Zm-10.5-19.8c-.12,1.96.58,3.86,1.48,5.7,2.18,4.44,8.13,6.72,12.66,4.86,4.78-1.97,7.36-6.24,7.01-11.6-.39-6.07-5.75-10.84-11.64-10.37-5.34.43-9.53,5.39-9.51,11.42Z"/>
      <path class="cls-2" d="M 547.54 61.54 C 547.54 67.4 547.51 73.27 547.56 79.13 C 547.56 80.27 547.25 80.68 546.07 80.63 C 543.87 80.55 541.67 80.58 539.47 80.62 C 538.42 80.64 537.98 80.29 537.99 79.18 C 538.02 67.33 538.01 55.47 537.99 43.62 C 537.99 42.56 538.37 42.1 539.45 42.12 C 541.65 42.15 543.86 42.15 546.06 42.12 C 547.2 42.1 547.56 42.59 547.55 43.71 C 547.51 49.66 547.53 55.61 547.53 61.55 L 547.54 61.54 Z"/>
      <path class="cls-2" d="m514.32,61.12c0-3.12-.01-6.24,0-9.36,0-.77-.24-1.17-1.08-1.12-.75.04-1.5-.05-2.24.03-1,.11-1.4-.41-1.42-1.28-.04-2.04-.1-4.08.01-6.11.02-.41.7-.98,1.18-1.11.7-.19,1.49-.11,2.23-.02.99.12,1.33-.22,1.3-1.23-.07-2.24-.04-4.49-.03-6.74,0-2.09.23-2.3,2.26-2.3,1.87,0,3.74,0,5.62,0,1.69,0,1.9.21,1.91,1.96,0,2.33.05,4.66-.04,6.99-.04,1.08.35,1.35,1.36,1.32,2.33-.07,4.66-.04,6.99-.02,1.38.01,1.67.32,1.68,1.7.01,1.75-.05,3.5.02,5.24.05,1.18-.33,1.65-1.57,1.6-2.24-.08-4.49-.03-6.73-.03-1.76,0-1.73,0-1.73,1.73.02,5.11.08,10.23-.01,15.34-.07,4.28,2.32,5.1,5.84,4.44.89-.17,1.78-.46,2.61-.82.85-.37,1.25,0,1.27.73.06,2.16.07,4.33-.03,6.48-.02.4-.57.95-1,1.12-4.63,1.8-9.32,2.1-13.89-.07-2.92-1.38-4.08-4.16-4.27-7.15-.24-3.76-.06-7.55-.06-11.33-.06,0-.13,0-.19,0Z"/>
      <path class="cls-1" d="M 167.15 40.21 C 169.28 40.21 171.36 40.15 173.42 40.26 C 173.91 40.29 174.52 40.81 174.81 41.27 C 178.23 46.67 181.6 52.11 184.99 57.53 C 185.05 57.63 185.13 57.72 185.43 58.1 L 185.43 40.3 L 191.38 40.3 C 191.38 40.83 191.38 41.35 191.38 41.87 C 191.38 50.43 191.35 59 191.38 67.56 C 191.38 68.5 191.13 68.82 190.19 68.77 C 188.99 68.7 187.77 68.68 186.57 68.77 C 185.52 68.86 184.9 68.45 184.36 67.58 C 180.76 61.85 177.12 56.14 173.49 50.42 C 173.38 50.25 173.26 50.09 172.92 49.61 C 172.88 50.28 172.84 50.61 172.84 50.93 C 172.84 56.46 172.81 61.99 172.84 67.51 C 172.84 68.52 172.51 68.8 171.54 68.74 C 170.1 68.66 168.65 68.72 167.13 68.72 L 167.13 40.19 L 167.15 40.21 Z"/>
      <path class="cls-1" d="M 158.68 54.52 C 159.07 63.78 151.6 69.62 143.61 69.46 C 135.55 69.3 129.16 62.83 129.2 54.54 C 129.24 45.85 135.54 39.56 144.15 39.55 C 152.16 39.53 159.07 45.71 158.69 54.52 L 158.68 54.52 Z M 152.64 54.87 C 152.61 54.14 152.61 53.76 152.57 53.39 C 152.14 49.43 150.05 46.77 146.23 45.61 C 142.95 44.61 140.17 45.67 137.86 48.05 C 135.13 50.86 134.62 55.6 136.57 59.18 C 138.89 63.44 144.02 64.91 148.24 62.51 C 151.34 60.74 152.5 57.91 152.64 54.87 Z"/>
      <path class="cls-1" d="M 15.43 48.96 C 14.62 45.24 10.48 43.65 7.71 45.79 C 6.81 46.49 6.15 47.37 6.34 48.55 C 6.54 49.8 7.39 50.64 8.61 50.95 C 10.26 51.36 11.94 51.64 13.6 52.02 C 17.19 52.84 20.03 54.63 20.97 58.43 C 22.06 62.83 19.77 67.07 15.33 68.67 C 11.66 69.99 7.95 69.79 4.44 68.02 C 1.71 66.64 0.16 64.31 -0.59 61.38 C -0.79 60.59 -0.55 60.18 0.19 59.98 C 1.39 59.65 2.6 59.35 3.79 59 C 4.51 58.79 4.8 59.03 5.01 59.75 C 6.01 63.21 9.38 64.92 12.77 63.75 C 14.23 63.25 15.15 62.16 15.19 60.89 C 15.23 59.72 14.4 58.57 12.9 58.1 C 11.4 57.63 9.83 57.37 8.3 57.02 C 7.73 56.89 7.16 56.77 6.61 56.6 C 3.51 55.62 1.2 53.79 0.56 50.45 C -0.09 47.08 0.93 44.21 3.55 41.95 C 7.09 38.89 13.98 38.74 17.64 41.66 C 19.16 42.87 20.15 44.43 20.65 46.28 C 20.74 46.62 20.41 47.37 20.11 47.48 C 18.61 48.05 17.05 48.47 15.42 48.96 L 15.43 48.96 Z"/>
      <path class="cls-1" d="M 90.2 50.01 L 90.2 68.7 L 84.39 68.7 L 84.39 40.17 C 86.67 40.17 88.9 40.13 91.13 40.21 C 91.46 40.22 91.87 40.69 92.09 41.04 C 95.45 46.44 98.78 51.85 102.12 57.26 C 102.26 57.48 102.47 57.66 102.82 58.07 L 102.82 40.23 C 104.67 40.23 106.44 40.19 108.2 40.28 C 108.38 40.28 108.67 41.04 108.67 41.45 C 108.7 48.98 108.68 56.51 108.68 64.04 C 108.68 65.33 108.66 66.62 108.68 67.91 C 108.69 68.55 108.46 68.8 107.81 68.79 C 106.31 68.76 104.81 68.84 103.32 68.76 C 102.91 68.74 102.36 68.43 102.14 68.08 C 98.43 62.31 94.77 56.52 91.09 50.74 C 90.91 50.45 90.68 50.19 90.47 49.92 C 90.38 49.95 90.29 49.98 90.19 50.02 L 90.2 50.01 Z"/>
      <path class="cls-1" d="M 57.72 40.23 C 58.67 40.23 59.5 40.23 60.32 40.23 C 65.06 40.23 69.8 40.23 74.55 40.19 C 75.45 40.19 75.82 40.36 75.76 41.35 C 75.67 42.75 75.74 44.17 75.74 45.67 C 75.33 45.72 75.01 45.78 74.7 45.78 C 71.37 45.78 68.04 45.82 64.72 45.76 C 63.72 45.74 63.39 46.05 63.46 47.05 C 63.54 48.29 63.55 49.55 63.48 50.79 C 63.43 51.73 63.77 52.01 64.69 52 C 67.89 51.96 71.09 51.98 74.56 51.98 C 74.56 53.5 74.59 55.02 74.52 56.53 C 74.52 56.71 73.91 57 73.58 57 C 70.71 57.03 67.84 57.06 64.97 56.98 C 63.75 56.94 63.33 57.33 63.45 58.53 C 63.55 59.6 63.55 60.69 63.48 61.77 C 63.41 62.84 63.72 63.23 64.86 63.2 C 68.1 63.12 71.35 63.2 74.59 63.14 C 75.52 63.12 75.86 63.37 75.77 64.33 C 75.68 65.4 75.68 66.49 75.75 67.57 C 75.81 68.5 75.51 68.77 74.57 68.77 C 69.79 68.72 65 68.75 60.22 68.75 C 57.71 68.75 57.69 68.75 57.69 66.21 C 57.69 57.93 57.69 49.66 57.69 41.38 C 57.69 41.05 57.72 40.73 57.75 40.21 L 57.72 40.23 Z"/>
      <path class="cls-1" d="M 50.53 40.31 C 50.53 41.98 50.57 43.59 50.49 45.19 C 50.48 45.41 49.87 45.76 49.54 45.77 C 47.3 45.82 45.05 45.84 42.8 45.77 C 41.76 45.74 41.45 46.06 41.46 47.11 C 41.53 53.93 41.51 60.75 41.57 67.57 C 41.57 68.51 41.31 68.83 40.38 68.77 C 39.22 68.71 38.05 68.71 36.89 68.79 C 35.97 68.86 35.67 68.58 35.68 67.62 C 35.73 60.93 35.71 54.23 35.73 47.54 C 35.73 45.79 35.75 45.78 33.99 45.79 C 31.95 45.79 29.91 45.77 27.88 45.83 C 27.05 45.85 26.66 45.69 26.7 44.75 C 26.77 43.31 26.72 41.86 26.72 40.31 L 50.54 40.31 L 50.53 40.31 Z"/>
      <path class="cls-1" d="M -39.91 40.22 C -38.14 40.22 -36.48 40.18 -34.83 40.27 C -34.58 40.28 -34.16 40.9 -34.15 41.24 C -34.1 44.53 -34.12 47.81 -34.13 51.1 C -34.13 54.72 -34.13 58.34 -34.18 61.96 C -34.2 62.93 -33.93 63.26 -32.91 63.23 C -29.71 63.15 -26.5 63.19 -23.3 63.18 C -22.81 63.18 -22.33 63.18 -21.77 63.18 L -21.77 68.77 C -23.26 68.77 -24.71 68.77 -26.15 68.77 C -30.35 68.77 -34.56 68.76 -38.76 68.79 C -39.65 68.79 -40 68.58 -40 67.61 C -39.97 58.83 -39.98 50.05 -39.98 41.27 C -39.98 40.98 -39.95 40.7 -39.91 40.21 L -39.91 40.22 Z"/>
      <path class="cls-1" d="M -14.04 40.27 L -8.45 40.27 C -8.42 40.7 -8.38 41.09 -8.38 41.49 C -8.38 50.22 -8.4 58.94 -8.38 67.67 C -8.38 68.44 -8.53 68.82 -9.4 68.78 C -10.73 68.73 -12.06 68.83 -13.39 68.76 C -13.69 68.74 -14.22 68.3 -14.22 68.06 C -14.25 58.88 -14.22 49.7 -14.22 40.51 C -14.22 40.48 -14.18 40.44 -14.06 40.27 L -14.04 40.27 Z"/>
      <path class="cls-2" d="m536.76,31.4c0-3.48,2.59-6.05,6.05-6.06,2.96-.01,6.05,2.11,5.92,6.39-.1,3.34-2.43,5.72-5.76,5.7-3.68-.02-6.21-2.47-6.21-6.02Z"/>
      <path class="cls-2" d="m615.16,51.38c-.21-.47-.44-.75-.45-1.04-.04-1.57-.07-3.15.02-4.72.02-.26.67-.48,1.04-.72.06.34.28.77.15,1.01-.36.69-.65,1.48.12,1.85.56.27,1.51.17,2.05-.16.35-.21.28-1.13.26-1.82.55-.55,1.1-.43,1.14.51.02.66-.05,1.51-.44,1.95-.65.72-.85,1.17.05,1.75.12.07.16.27.42.76-.62-.08-.98-.09-1.33-.18-.13-.03-.19-.27-.31-.38-.56-.51-1.13-1-1.7-1.5-.22.63-.43,1.25-.65,1.88-.08.21-.19.42-.37.81Z"/>
      <path class="cls-2" d="m615.1,42.93c-.57.32-1.14.65-1.71.97-.08-.13-.15-.26-.23-.39.56-.33,1.12-.67,1.68-1,.09.14.17.28.26.42Z"/>
    </g>
  </g>
</svg>