<?xml version="1.0" encoding="UTF-8"?>
<svg id="Layer_2" data-name="Layer 2" xmlns="http://www.w3.org/2000/svg" viewBox="0 0 495.28 129.59">
  <defs>
    <style>
      .cls-1 {
        fill: #ffba49;
      }

      .cls-2 {
        fill: #f2f2f2;
      }
    </style>
  </defs>
  <g id="Layer_1-2" data-name="Layer 1">
    <g>
      <g>
        <path class="cls-1" d="m16.2,52.7c-4.9,0-8.82-1.38-11.77-4.14-2.95-2.76-4.43-6.68-4.43-11.77h9.22c.05,2.35.6,4.22,1.66,5.62,1.06,1.39,2.76,2.09,5.11,2.09,2.21,0,3.82-.66,4.82-1.98,1.01-1.32,1.51-3.06,1.51-5.22V1.44h9.22v35.86c0,4.94-1.38,8.75-4.14,11.41-2.76,2.66-6.49,4-11.2,4Z"/>
        <path class="cls-1" d="m56.45,52.7c-3.46,0-6.56-.79-9.32-2.38-2.76-1.58-4.94-3.78-6.55-6.59-1.61-2.81-2.41-6.06-2.41-9.76s.82-6.95,2.45-9.76c1.63-2.81,3.83-5,6.59-6.59,2.76-1.58,5.87-2.38,9.32-2.38s6.49.79,9.25,2.38c2.76,1.58,4.94,3.78,6.55,6.59,1.61,2.81,2.41,6.06,2.41,9.76s-.8,6.95-2.41,9.76c-1.61,2.81-3.8,5-6.59,6.59-2.78,1.58-5.88,2.38-9.29,2.38Zm0-7.99c2.4,0,4.49-.9,6.26-2.7,1.78-1.8,2.66-4.48,2.66-8.03s-.89-6.23-2.66-8.03c-1.78-1.8-3.84-2.7-6.19-2.7s-4.55.9-6.3,2.7c-1.75,1.8-2.63,4.48-2.63,8.03s.88,6.23,2.63,8.03c1.75,1.8,3.83,2.7,6.23,2.7Z"/>
        <path class="cls-1" d="m81.14,51.84V16.13h8.14l.72,6.05c1.1-2.11,2.7-3.79,4.79-5.04,2.09-1.25,4.55-1.87,7.38-1.87,4.42,0,7.85,1.39,10.3,4.18,2.45,2.78,3.67,6.86,3.67,12.24v20.16h-9.22v-19.3c0-3.07-.62-5.42-1.87-7.06-1.25-1.63-3.19-2.45-5.83-2.45s-4.72.91-6.37,2.74c-1.66,1.82-2.48,4.37-2.48,7.63v18.43h-9.22Z"/>
        <path class="cls-1" d="m135.43,52.7c-3.07,0-5.59-.49-7.56-1.48-1.97-.98-3.43-2.29-4.39-3.92-.96-1.63-1.44-3.43-1.44-5.4,0-3.31,1.3-6,3.89-8.06,2.59-2.06,6.48-3.1,11.66-3.1h9.07v-.86c0-2.45-.7-4.25-2.09-5.4-1.39-1.15-3.12-1.73-5.18-1.73-1.87,0-3.5.44-4.9,1.33-1.39.89-2.26,2.2-2.59,3.92h-9c.24-2.59,1.12-4.85,2.63-6.77,1.51-1.92,3.47-3.4,5.87-4.43,2.4-1.03,5.09-1.55,8.06-1.55,5.09,0,9.1,1.27,12.02,3.82,2.93,2.54,4.39,6.14,4.39,10.8v21.96h-7.85l-.86-5.76c-1.06,1.92-2.53,3.5-4.43,4.75-1.9,1.25-4.33,1.87-7.31,1.87Zm2.09-7.2c2.64,0,4.69-.86,6.16-2.59,1.46-1.73,2.39-3.86,2.77-6.41h-7.85c-2.45,0-4.2.44-5.26,1.33-1.06.89-1.58,1.98-1.58,3.28,0,1.39.53,2.47,1.58,3.24,1.06.77,2.45,1.15,4.18,1.15Z"/>
        <path class="cls-1" d="m178.27,51.84c-3.74,0-6.74-.91-9-2.74-2.26-1.82-3.38-5.06-3.38-9.72v-15.55h-6.12v-7.7h6.12l1.08-9.58h8.14v9.58h9.65v7.7h-9.65v15.62c0,1.73.37,2.92,1.12,3.56.74.65,2.03.97,3.85.97h4.46v7.85h-6.26Z"/>
        <path class="cls-1" d="m190.87,51.84V0h9.22v21.6c1.2-1.97,2.82-3.52,4.86-4.64,2.04-1.13,4.38-1.69,7.02-1.69,4.42,0,7.84,1.39,10.26,4.18,2.42,2.78,3.64,6.86,3.64,12.24v20.16h-9.14v-19.3c0-3.07-.61-5.42-1.84-7.06-1.22-1.63-3.16-2.45-5.8-2.45s-4.74.91-6.44,2.74c-1.7,1.82-2.56,4.37-2.56,7.63v18.43h-9.22Z"/>
        <path class="cls-1" d="m245.16,52.7c-3.07,0-5.59-.49-7.56-1.48-1.97-.98-3.43-2.29-4.39-3.92-.96-1.63-1.44-3.43-1.44-5.4,0-3.31,1.3-6,3.89-8.06,2.59-2.06,6.48-3.1,11.66-3.1h9.07v-.86c0-2.45-.7-4.25-2.09-5.4-1.39-1.15-3.12-1.73-5.18-1.73-1.87,0-3.5.44-4.9,1.33-1.39.89-2.26,2.2-2.59,3.92h-9c.24-2.59,1.12-4.85,2.63-6.77,1.51-1.92,3.47-3.4,5.87-4.43,2.4-1.03,5.09-1.55,8.06-1.55,5.09,0,9.1,1.27,12.02,3.82,2.93,2.54,4.39,6.14,4.39,10.8v21.96h-7.85l-.86-5.76c-1.06,1.92-2.53,3.5-4.43,4.75-1.9,1.25-4.33,1.87-7.31,1.87Zm2.09-7.2c2.64,0,4.69-.86,6.16-2.59,1.46-1.73,2.39-3.86,2.77-6.41h-7.85c-2.45,0-4.2.44-5.26,1.33-1.06.89-1.58,1.98-1.58,3.28,0,1.39.53,2.47,1.58,3.24,1.06.77,2.45,1.15,4.18,1.15Z"/>
        <path class="cls-1" d="m272.59,51.84V16.13h8.14l.72,6.05c1.1-2.11,2.7-3.79,4.79-5.04,2.09-1.25,4.55-1.87,7.38-1.87,4.42,0,7.85,1.39,10.3,4.18,2.45,2.78,3.67,6.86,3.67,12.24v20.16h-9.22v-19.3c0-3.07-.62-5.42-1.87-7.06-1.25-1.63-3.19-2.45-5.83-2.45s-4.72.91-6.37,2.74c-1.66,1.82-2.48,4.37-2.48,7.63v18.43h-9.22Z"/>
        <path class="cls-1" d="m330.11,51.84V1.44h20.23c5.23,0,9.23,1.21,11.99,3.64,2.76,2.42,4.14,5.53,4.14,9.32,0,3.17-.85,5.7-2.56,7.6-1.7,1.9-3.78,3.18-6.23,3.85,2.88.58,5.26,2,7.13,4.28,1.87,2.28,2.81,4.93,2.81,7.96,0,3.98-1.44,7.27-4.32,9.86-2.88,2.59-6.96,3.89-12.24,3.89h-20.95Zm9.22-29.23h9.65c2.59,0,4.58-.6,5.98-1.8,1.39-1.2,2.09-2.9,2.09-5.11s-.68-3.78-2.05-5c-1.37-1.22-3.42-1.84-6.16-1.84h-9.5v13.75Zm0,21.74h10.3c2.74,0,4.86-.64,6.37-1.91,1.51-1.27,2.27-3.06,2.27-5.36s-.79-4.2-2.38-5.54c-1.58-1.34-3.72-2.02-6.41-2.02h-10.15v14.83Z"/>
        <path class="cls-1" d="m385.84,52.7c-3.07,0-5.59-.49-7.56-1.48-1.97-.98-3.43-2.29-4.39-3.92-.96-1.63-1.44-3.43-1.44-5.4,0-3.31,1.3-6,3.89-8.06,2.59-2.06,6.48-3.1,11.66-3.1h9.07v-.86c0-2.45-.7-4.25-2.09-5.4-1.39-1.15-3.12-1.73-5.18-1.73-1.87,0-3.5.44-4.9,1.33-1.39.89-2.26,2.2-2.59,3.92h-9c.24-2.59,1.12-4.85,2.63-6.77,1.51-1.92,3.47-3.4,5.87-4.43,2.4-1.03,5.09-1.55,8.06-1.55,5.09,0,9.09,1.27,12.02,3.82,2.93,2.54,4.39,6.14,4.39,10.8v21.96h-7.85l-.86-5.76c-1.06,1.92-2.53,3.5-4.43,4.75-1.9,1.25-4.33,1.87-7.31,1.87Zm2.09-7.2c2.64,0,4.69-.86,6.16-2.59,1.46-1.73,2.39-3.86,2.77-6.41h-7.85c-2.45,0-4.2.44-5.26,1.33-1.06.89-1.58,1.98-1.58,3.28,0,1.39.53,2.47,1.58,3.24,1.05.77,2.45,1.15,4.18,1.15Z"/>
        <path class="cls-1" d="m413.27,51.84V16.13h8.21l.86,6.7c1.3-2.3,3.06-4.14,5.29-5.51s4.86-2.05,7.88-2.05v9.72h-2.59c-2.02,0-3.82.31-5.4.94-1.58.62-2.82,1.7-3.71,3.24-.89,1.54-1.33,3.67-1.33,6.41v16.27h-9.22Z"/>
        <path class="cls-1" d="m455.9,51.84c-3.74,0-6.74-.91-9-2.74-2.26-1.82-3.38-5.06-3.38-9.72v-15.55h-6.12v-7.7h6.12l1.08-9.58h8.14v9.58h9.65v7.7h-9.65v15.62c0,1.73.37,2.92,1.12,3.56.74.65,2.03.97,3.85.97h4.46v7.85h-6.26Z"/>
        <path class="cls-1" d="m466.19,51.84v-7.42l18.22-20.66h-18v-7.63h28.51v7.42l-18.5,20.66h18.86v7.63h-29.09Z"/>
      </g>
      <g>
        <path class="cls-2" d="m169.38,121.27c-2.75,0-5.11-.61-7.1-1.82-1.99-1.21-3.53-2.91-4.62-5.08-1.09-2.17-1.64-4.7-1.64-7.58s.55-5.37,1.64-7.54c1.09-2.17,2.63-3.87,4.62-5.1,1.99-1.23,4.35-1.84,7.1-1.84,3.2,0,5.81.77,7.82,2.3,2.01,1.53,3.3,3.67,3.86,6.42h-3.72c-.43-1.73-1.3-3.13-2.62-4.18-1.32-1.05-3.1-1.58-5.34-1.58-2,0-3.75.46-5.24,1.38-1.49.92-2.65,2.24-3.46,3.96-.81,1.72-1.22,3.78-1.22,6.18s.41,4.46,1.22,6.18c.81,1.72,1.97,3.04,3.46,3.96,1.49.92,3.24,1.38,5.24,1.38,2.24,0,4.02-.51,5.34-1.54,1.32-1.03,2.19-2.39,2.62-4.1h3.72c-.56,2.69-1.85,4.8-3.86,6.32-2.01,1.52-4.62,2.28-7.82,2.28Z"/>
        <path class="cls-2" d="m193.74,121.27c-1.87,0-3.55-.43-5.04-1.28-1.49-.85-2.67-2.06-3.54-3.62-.87-1.56-1.3-3.39-1.3-5.5s.44-3.94,1.32-5.5c.88-1.56,2.07-2.77,3.58-3.62,1.51-.85,3.19-1.28,5.06-1.28s3.55.43,5.04,1.28c1.49.85,2.67,2.06,3.54,3.62.87,1.56,1.3,3.39,1.3,5.5s-.44,3.94-1.32,5.5c-.88,1.56-2.07,2.77-3.58,3.62-1.51.85-3.19,1.28-5.06,1.28Zm0-2.88c1.15,0,2.21-.28,3.2-.84.99-.56,1.79-1.4,2.4-2.52.61-1.12.92-2.51.92-4.16s-.3-3.04-.9-4.16-1.39-1.96-2.38-2.52c-.99-.56-2.04-.84-3.16-.84s-2.21.28-3.2.84c-.99.56-1.79,1.4-2.4,2.52-.61,1.12-.92,2.51-.92,4.16s.31,3.04.92,4.16c.61,1.12,1.41,1.96,2.38,2.52.97.56,2.02.84,3.14.84Z"/>
        <path class="cls-2" d="m207.38,120.79v-19.84h3.04l.24,2.88c.64-1.07,1.49-1.89,2.56-2.48,1.07-.59,2.27-.88,3.6-.88,1.57,0,2.93.32,4.06.96,1.13.64,2.01,1.61,2.62,2.92.69-1.2,1.65-2.15,2.86-2.84,1.21-.69,2.53-1.04,3.94-1.04,2.37,0,4.27.71,5.68,2.14,1.41,1.43,2.12,3.62,2.12,6.58v11.6h-3.32v-11.24c0-2.05-.41-3.6-1.24-4.64-.83-1.04-2.01-1.56-3.56-1.56s-2.93.62-3.98,1.86c-1.05,1.24-1.58,3.01-1.58,5.3v10.28h-3.36v-11.24c0-2.05-.41-3.6-1.24-4.64-.83-1.04-2.01-1.56-3.56-1.56s-2.89.62-3.94,1.86c-1.05,1.24-1.58,3.01-1.58,5.3v10.28h-3.36Z"/>
        <path class="cls-2" d="m242.18,129.59v-28.64h3.04l.32,3.28c.64-.96,1.55-1.83,2.74-2.6,1.19-.77,2.7-1.16,4.54-1.16,1.97,0,3.69.45,5.16,1.36,1.47.91,2.61,2.15,3.42,3.72.81,1.57,1.22,3.36,1.22,5.36s-.41,3.78-1.22,5.34c-.81,1.56-1.96,2.79-3.44,3.68-1.48.89-3.21,1.34-5.18,1.34-1.63,0-3.07-.33-4.34-1-1.27-.67-2.23-1.6-2.9-2.8v12.12h-3.36Zm10.24-11.24c1.33,0,2.51-.31,3.52-.94,1.01-.63,1.81-1.5,2.4-2.62.59-1.12.88-2.43.88-3.92s-.29-2.8-.88-3.92c-.59-1.12-1.39-1.99-2.4-2.62-1.01-.63-2.19-.94-3.52-.94s-2.51.31-3.52.94c-1.01.63-1.81,1.5-2.4,2.62-.59,1.12-.88,2.43-.88,3.92s.29,2.8.88,3.92c.59,1.12,1.39,1.99,2.4,2.62,1.01.63,2.19.94,3.52.94Z"/>
        <path class="cls-2" d="m275.34,121.27c-1.87,0-3.55-.43-5.04-1.28-1.49-.85-2.67-2.06-3.54-3.62-.87-1.56-1.3-3.39-1.3-5.5s.44-3.94,1.32-5.5c.88-1.56,2.07-2.77,3.58-3.62,1.51-.85,3.19-1.28,5.06-1.28s3.55.43,5.04,1.28c1.49.85,2.67,2.06,3.54,3.62.87,1.56,1.3,3.39,1.3,5.5s-.44,3.94-1.32,5.5c-.88,1.56-2.07,2.77-3.58,3.62-1.51.85-3.19,1.28-5.06,1.28Zm0-2.88c1.15,0,2.21-.28,3.2-.84.99-.56,1.79-1.4,2.4-2.52.61-1.12.92-2.51.92-4.16s-.3-3.04-.9-4.16c-.6-1.12-1.39-1.96-2.38-2.52-.99-.56-2.04-.84-3.16-.84s-2.21.28-3.2.84c-.99.56-1.79,1.4-2.4,2.52-.61,1.12-.92,2.51-.92,4.16s.31,3.04.92,4.16c.61,1.12,1.41,1.96,2.38,2.52.97.56,2.02.84,3.14.84Z"/>
        <path class="cls-2" d="m296.58,121.27c-2.37,0-4.35-.6-5.92-1.8-1.57-1.2-2.49-2.83-2.76-4.88h3.44c.21,1.04.77,1.94,1.66,2.7s2.1,1.14,3.62,1.14c1.41,0,2.45-.3,3.12-.9.67-.6,1-1.31,1-2.14,0-1.2-.43-2-1.3-2.4-.87-.4-2.09-.76-3.66-1.08-1.07-.21-2.13-.52-3.2-.92-1.07-.4-1.96-.97-2.68-1.7-.72-.73-1.08-1.7-1.08-2.9,0-1.73.65-3.15,1.94-4.26,1.29-1.11,3.05-1.66,5.26-1.66s3.83.53,5.18,1.58c1.35,1.05,2.13,2.55,2.34,4.5h-3.32c-.13-1.01-.57-1.81-1.3-2.38-.73-.57-1.71-.86-2.94-.86s-2.13.25-2.78.76c-.65.51-.98,1.17-.98,2s.42,1.43,1.26,1.88c.84.45,1.98.84,3.42,1.16,1.23.27,2.39.59,3.5.98,1.11.39,2.01.96,2.72,1.72.71.76,1.06,1.86,1.06,3.3.03,1.79-.65,3.26-2.02,4.42-1.37,1.16-3.23,1.74-5.58,1.74Z"/>
        <path class="cls-2" d="m316.9,121.27c-1.89,0-3.57-.43-5.04-1.3-1.47-.87-2.62-2.07-3.46-3.62-.84-1.55-1.26-3.37-1.26-5.48s.41-3.9,1.24-5.46c.83-1.56,1.98-2.77,3.46-3.64,1.48-.87,3.19-1.3,5.14-1.3s3.58.43,4.98,1.3,2.47,2.01,3.22,3.42c.75,1.41,1.12,2.93,1.12,4.56,0,.29,0,.59-.02.88-.01.29-.02.63-.02,1h-15.8c.08,1.52.43,2.78,1.06,3.78.63,1,1.41,1.75,2.36,2.26.95.51,1.95.76,3.02.76,1.39,0,2.55-.32,3.48-.96.93-.64,1.61-1.51,2.04-2.6h3.32c-.53,1.84-1.55,3.37-3.06,4.58-1.51,1.21-3.43,1.82-5.78,1.82Zm0-17.96c-1.6,0-3.02.49-4.26,1.46-1.24.97-1.95,2.39-2.14,4.26h12.48c-.08-1.79-.69-3.19-1.84-4.2-1.15-1.01-2.56-1.52-4.24-1.52Z"/>
        <path class="cls-2" d="m329.73,120.79v-19.84h3.04l.28,3.8c.61-1.31,1.55-2.35,2.8-3.12,1.25-.77,2.8-1.16,4.64-1.16v3.52h-.92c-1.17,0-2.25.21-3.24.62-.99.41-1.77,1.11-2.36,2.1-.59.99-.88,2.35-.88,4.08v10h-3.36Z"/>
      </g>
    </g>
  </g>
</svg>