<?xml version="1.0" encoding="UTF-8"?>
<svg id="Layer_2" data-name="Layer 2" xmlns="http://www.w3.org/2000/svg" viewBox="0 0 338.79 85.79">
  <defs>
    <style>
      .cls-1 {
        fill: #ffb949;
      }

      .cls-2 {
        fill: #f1f1f1;
      }
    </style>
  </defs>
  <g id="Layer_1-2" data-name="Layer 1">
    <g>
      <path class="cls-1" d="m4.31,39.18c-.37-1.13-.68-2.28-1-3.43-.09-.32-.28-.61-.37-.94-.71-2.57-1.37-5.15-2.07-7.68-.28-1.01-.55-1.97-.8-2.89-.17-.6-.03-.88.64-1.07,1.33-.37,2.71-.75,4.09-1.13.36-.1.68-.13,1.02.12.09.12.23.23.33.41.46,1.11.71,2.28,1.01,3.38.54,2.03,1.13,4.04,1.72,6.05.18.69.37,1.38.6,2.06.86,2.83,1.6,5.64,2.31,8.51.46,1.75.87,3.47,1.27,5.18.17.65.23,1.27.14,1.89-.04.45-.02.89-.07,1.3-.06,1.15-.38,2.27-1.05,3.24-.58.75-1.31,1.29-2.12,1.75-1.12.65-2.35,1.09-3.6,1.44-.49.09-.95.32-1.43.45-.63.18-1.22.29-1.86.43-.64.13-1.02-.1-1.19-.7-.07-.23-.13-.46-.15-.7-.29-1-.58-2.01-.83-3.03-.2-.68,0-1.09.72-1.34.68-.19,1.37-.34,2.05-.53.99-.23,1.92-.64,2.72-1.35.29-.28.46-.62.52-.98.05-.76-.03-1.42-.17-2.13-.36-1.28-.75-2.51-1.09-3.75-.17-.6-.32-1.15-.47-1.7-.05-.18-.1-.37-.15-.55-.27-.77-.48-1.55-.7-2.33Z"/>
      <path class="cls-1" d="m14.52,35.85c-.17-.84-.23-1.71-.34-2.57-.1-1.21-.29-2.39-.39-3.6-.06-1.07-.05-2.1.18-3.1.08-.32.11-.62.14-.92.29-1.4.89-2.69,1.8-3.86.45-.61.95-1.22,1.46-1.79.42-.5.88-1.06,1.52-1.36.05-.01.04-.06.09-.07.62-.59,1.41-.94,2.25-1.29.89-.36,1.85-.69,2.84-.88.94-.17,1.85-.24,2.79-.16,1.11.09,2.14.34,3.18.64.81.26,1.49.64,2.09,1.15.98.76,1.77,1.71,2.47,2.69.99,1.6,1.91,3.16,2.75,4.84.46.93.78,1.94,1.06,2.96.54,2.29.79,4.68.88,7.06.07,1.55.1,3.12-.23,4.71-.11.46-.25.98-.36,1.45-.2.98-.64,1.8-1,2.72-.28.6-.57,1.15-.89,1.77-.64,1.07-1.32,2.11-2.37,2.93-.43.34-.88.64-1.38.9-.76.47-1.58.71-2.38.99-.05.01-.1.02-.15.03-.75.08-1.5.16-2.26.19-.61.05-1.24-.05-1.86-.05-.67.01-1.27-.13-1.85-.39-.84-.29-1.66-.67-2.48-1.06-.71-.36-1.39-.78-1.94-1.33-.01-.05-.08-.13-.08-.13-.68-.42-1.15-1.04-1.62-1.66-.4-.54-.76-1.14-1.11-1.69-1.04-1.8-1.64-3.72-1.99-5.69-.05-.18-.09-.37-.14-.55-.25-.97-.5-1.94-.64-2.89Zm15.46-6.58c-.44-1.22-1.02-2.37-1.84-3.4-.45-.58-.96-1.15-1.64-1.53-.19-.15-.43-.24-.76-.26-.6-.05-1.22.04-1.84.14-.56.13-.98.38-1.25.84-.68.95-1.19,1.96-1.57,3.04-.67,2.08-.57,4.22-.22,6.3.37,1.93,1,3.84,1.81,5.65.35.8.71,1.6,1.34,2.28.51.57,1.08,1.02,1.87,1.27.67.18,1.38.31,2.07.39.9.08,1.6-.28,2.19-.86.6-.53,1-1.26,1.19-2.04.31-1.15.46-2.31.35-3.47-.09-1.79-.34-3.55-.73-5.28-.34-1.05-.63-2.06-.96-3.07Z"/>
      <path class="cls-1" d="m59.91,27.18c-.33-1.55-.7-3.1-1.02-4.6-.39-1.59-.66-3.16-1.04-4.7-.5-1.91-.83-3.81-1.17-5.7-.07-.38-.19-.75-.25-1.13-.14-.51-.01-.68.49-.87.45-.18.92-.26,1.38-.35.78-.14,1.55-.32,2.32-.51.67-.17,1.28-.32,1.94-.53.1-.02.21-.04.31-.05.26-.04.44.07.48.31.28,1.37.51,2.75.79,4.11.18,1.09.36,2.19.54,3.28.25,1.23.4,2.42.7,3.59.49,2.02.88,4.05,1.26,6.09.19,1.14.43,2.32.73,3.49.62,2.53,1,5.15,1.52,7.7.2.9.4,1.84.6,2.73.12.76.25,1.52.37,2.28.05.33-.14.66-.57.83-.38.16-.8.33-1.19.44-.63.15-1.27.26-1.85.41-.34.06-.69.12-.98.17-.38.11-.7.02-.96-.28-.25-.3-.56-.59-.81-.88-.98-1-1.88-2.06-2.87-3.01-.8-.79-1.53-1.68-2.29-2.52-.76-.79-1.56-1.52-2.34-2.36-1.78-1.82-3.62-3.62-5.47-5.36-.12-.07-.19-.16-.37-.32.04.19.05.28.07.38.4,2.07.8,4.15,1.21,6.27.32,1.4.61,2.87.94,4.32.31,1.36.57,2.68.87,3.99.06.33.02.63-.07.94-.13.37-.4.57-.78.69-.58.16-1.15.37-1.72.53-.92.23-1.8.4-2.74.55-.59.12-.89-.11-1.05-.67-.19-.94-.44-1.92-.64-2.86-.5-1.95-1.02-3.95-1.47-5.91-.42-1.77-.78-3.56-1.14-5.3-.41-1.97-.86-3.93-1.27-5.91-.73-3.28-1.41-6.61-2.09-9.9-.19-.65-.38-1.34-.52-2-.06-.28-.01-.59-.03-.92.01-.2.15-.33.41-.38.26-.05.52-.11.78-.16.66-.19,1.34-.33,2.05-.52.78-.16,1.57-.22,2.32-.52.3-.11.63-.08.8.23.5.88,1.27,1.56,1.9,2.32.44.65,1.03,1.22,1.53,1.85.81.92,1.57,1.85,2.34,2.83.61.71,1.18,1.49,1.78,2.2.08.13.2.21.27.34,1.21,1.73,2.66,3.32,4.04,4.92.72.8,1.47,1.54,2.24,2.33,0,.05.06.04.12.08.01-.02.03-.04.04-.06-.17-.65-.28-1.32-.44-1.92Z"/>
      <path class="cls-1" d="m72.94,39.79c.2-.66.29-1.36.39-2.06.35-2,.49-4.03.65-6,.17-2.22.45-4.46.74-6.65.12-.9.21-1.74.28-2.63.13-.85.22-1.69.34-2.59.2-1.1.4-2.26.6-3.36.16-1.1.31-2.19.48-3.24.01-.29.02-.59.03-.88.11-.7.17-1.39.28-2.09.19-.91.43-1.82.66-2.78.06-.35.29-.58.75-.74.66-.19,1.34-.29,2.02-.39,1.19-.22,2.39-.39,3.59-.6.42-.06.64.01.94.26.36.29.61.65.77,1.07.36.73.82,1.4,1.02,2.2.2.75.55,1.44.85,2.13.3.74.55,1.44.84,2.13.01.1.07.14.02.19.08.62.36,1.17.63,1.72.38.97.81,1.9,1.24,2.87.14.32.29.65.49,1.01.66,1.62,1.38,3.24,2.09,4.91.44,1.12.93,2.18,1.36,3.29.53,1.45,1.06,2.9,1.63,4.34.35.84.75,1.67,1.09,2.46.21.51.37,1.03.58,1.54.12.18.2.42.27.6.21.56.43,1.12.6,1.73.15.47-.15.89-.69.96-1.08.17-2.15.39-3.18.61-.15.02-.29.08-.44.05-.84.1-1.66.3-2.43.54-.58.17-.73.14-1-.41-.34-.69-.68-1.42-.97-2.12-.21-.46-.37-.93-.53-1.35-.08-.23-.19-.27-.39-.24-.45.06-.94.17-1.38.23-1.3.12-2.63.3-3.93.43-.5.07-.95.08-1.44.15-.35,0-.35.05-.41.35-.15,1.05-.36,2.05-.57,3.05-.06.25-.18.51-.3.73-.11.26-.34.44-.68.49-1.09.11-2.23.23-3.31.39-.5.03-.98.15-1.48.18-.44.07-.83.13-1.29.15-.34.05-.62-.1-.77-.42-.13-.17-.17-.41-.25-.64-.09-.57.03-1.08.2-1.59Zm10.42-18.79s-.03.15-.07.25c-.06.35-.11.75-.1,1.14-.16.75-.31,1.55-.31,2.29-.05.74-.11,1.48-.31,2.24-.11.31-.17.66-.28.97-.04.1-.02.2-.06.3,1.31-.14,2.58-.26,3.84-.38-.13-.62-.37-1.22-.64-1.77-.47-.81-.84-1.69-1.12-2.58-.32-.83-.58-1.63-.85-2.47-.05,0-.05,0-.1.01Z"/>
      <path class="cls-1" d="m101.41,18.89c-.19-1.78-.53-3.6-.77-5.42-.08-.77-.17-1.59-.25-2.41q-.04-.39-.4-.35c-1.03.16-2.01.27-3.04.44-.83.09-1.66.14-2.49.24-.31.04-.48-.09-.52-.43-.03-.29-.01-.58-.05-.87-.17-1.49-.34-2.93-.5-4.38-.03-.24.05-.49.13-.75.18-.27.38-.34.65-.37.63-.03,1.26-.05,1.89-.12,1.83-.16,3.67-.32,5.5-.47,1.94-.21,3.87-.4,5.81-.54,1.84-.13,3.67-.25,5.51-.37.52-.05.69.09.73.57.13,1.55.25,3.05.37,4.55.05.58-.1.74-.66.89-.97.23-1.89.46-2.87.6-.87.18-1.7.3-2.58.39-.41.09-.41.04-.37.47.1,1.06.2,2.13.24,3.19.15,1.59.19,3.2.29,4.8.12,1.89.3,3.77.48,5.71.34,4.16.73,8.36,1.07,12.57.02.19-.01.39,0,.58-.03.25-.16.41-.4.48-.39.09-.83.18-1.27.27-.35.03-.74.12-1.08.15-.3.03-.59.06-.89.09-.49.05-.99.1-1.48.2-.69.07-.96-.1-1.04-.87-.33-2.69-.67-5.44-.95-8.13-.18-1.74-.36-3.42-.54-5.16.05,0,.05,0,.1-.01-.19-1.83-.39-3.71-.63-5.54Z"/>
      <path class="cls-1" d="m125.83,33.89c0,.83.05,1.61.06,2.43,0,.1.02.24.02.34-.03.25-.12.4-.37.41-1.13.22-2.31.45-3.44.58-.74.1-1.54.01-2.29-.03-.3.02-.41-.16-.44-.5-.08-.38-.11-.82-.1-1.26-.1-1.99-.16-4.03-.31-6.02-.17-2.28-.4-4.55-.62-6.82-.12-1.5-.33-2.95-.44-4.45-.2-2.67-.36-5.38-.57-8.1-.07-1.6-.2-3.25-.21-4.86-.07-.92-.03-1.8-.05-2.73-.02-.29.12-.45.38-.52.46-.13.88-.27,1.3-.3.94-.12,1.88-.19,2.83-.27.63-.05,1.21,0,1.79.02.53.01.69.15.72.58.1.72.15,1.45.19,2.18.05,1.65.21,3.25.21,4.86.05,1.56.15,3.16.25,4.71,0,.05,0,.15.01.19-.04.2.06.19.27.18.41-.03.87-.11,1.28-.13.87-.06,1.75-.11,2.62-.21,1.18-.17,2.35-.34,3.58-.5.31-.07.36-.02.34-.41-.17-2.33-.34-4.67-.41-6.96-.07-1.31-.08-2.63-.05-3.95,0-.15-.02-.29-.02-.44.03-.39.28-.65.7-.72.78-.19,1.61-.38,2.4-.52.99-.25,2.04-.3,3.09-.3.37-.02.59.17.6.56.02.39.03.78,0,1.17-.03,1.81.2,3.65.32,5.46.21,2.63.36,5.21.52,7.79.16,2.68.31,5.26.46,7.89.18,3.17.4,6.28.57,9.4.03.88.07,1.76.16,2.68,0,.1,0,.2-.04.3.01.29-.13.49-.43.51-.94.09-1.87.27-2.82.22-.6-.07-1.19-.04-1.84-.06-.35.02-.7-.02-1.1-.04-.4-.03-.55-.17-.57-.56-.2-1.89-.39-3.84-.54-5.73-.15-2.04-.26-4.13-.42-6.22-.05-.92-.1-1.9-.14-2.82q-.02-.39-.38-.37c-1.27.07-2.59.14-3.86.27-1.22.07-2.38.25-3.55.37-.35.07-.4.08-.38.42.1,1.6.21,3.25.37,4.85.06.87.11,1.7.17,2.57.05,1.61.06,3.26.17,4.87Z"/>
      <path class="cls-1" d="m144.54,33.02c.28-.64.46-1.33.63-2.02.59-1.97.98-3.99,1.38-5.96.44-2.21.99-4.43,1.54-6.6.23-.89.41-1.72.6-2.61.23-.84.42-1.67.66-2.56.33-1.08.67-2.22,1.01-3.3.29-1.08.57-2.17.87-3.2.05-.29.09-.59.14-.88.19-.69.34-1.38.53-2.07.3-.89.65-1.78,1-2.71.1-.34.36-.55.83-.66.68-.11,1.36-.13,2.05-.14,1.21-.07,2.42-.09,3.62-.16.42,0,.63.09.9.38.32.34.53.73.64,1.17.27.78.64,1.51.74,2.34.11.78.37,1.51.58,2.25.21.78.37,1.52.58,2.25,0,.1.05.15,0,.2,0,.64.21,1.22.42,1.81.26,1.03.57,2.01.88,3.03.1.34.21.69.36,1.08.46,1.71.97,3.43,1.47,5.19.3,1.18.65,2.3.95,3.48.35,1.52.69,3.04,1.08,4.56.25.88.54,1.77.78,2.6.15.54.24,1.08.39,1.62.1.2.15.44.19.64.14.59.29,1.18.38,1.82.09.49-.26.88-.8.88-1.09.04-2.18.13-3.22.23-.15,0-.3.05-.45,0-.84,0-1.68.1-2.48.24-.59.1-.74.05-.94-.54-.25-.73-.5-1.52-.71-2.25-.15-.49-.25-.98-.36-1.42-.05-.24-.15-.29-.35-.29-.45,0-.95.06-1.4.06-1.3-.04-2.65-.02-3.94-.05-.5,0-.95-.03-1.45-.02-.35-.04-.35,0-.44.3-.28,1.03-.61,2.02-.94,3-.1.25-.24.49-.38.69-.14.25-.39.4-.74.41-1.09-.03-2.23-.05-3.32-.02-.5-.04-.99.03-1.49,0-.45.01-.84.03-1.29,0-.35.01-.6-.18-.71-.51-.11-.19-.11-.44-.17-.68-.02-.59.16-1.08.39-1.58Zm12.6-17.61s-.05.15-.1.25c-.1.34-.2.74-.24,1.13-.25.74-.49,1.52-.59,2.26-.14.74-.29,1.47-.58,2.21-.15.3-.24.64-.39.94-.05.1-.05.2-.1.3,1.32.03,2.58.06,3.85.09-.06-.64-.21-1.27-.42-1.86-.36-.88-.63-1.8-.79-2.73-.21-.88-.38-1.71-.54-2.59-.05,0-.05,0-.1,0Z"/>
      <path class="cls-1" d="m190.1,18.34c.02-1.62-.01-3.25,0-4.83-.03-1.68.04-3.3,0-4.93-.07-2.02.01-3.99.1-5.96.02-.39-.02-.79,0-1.18-.03-.54.13-.68.66-.76.48-.08.95-.06,1.42-.04.79.03,1.58.02,2.37,0,.68-.02,1.32-.04,2.01-.11.11,0,.21,0,.32.01.26.01.41.17.4.41-.02,1.43-.1,2.86-.13,4.29-.06,1.13-.12,2.26-.18,3.4-.02,1.28-.14,2.51-.1,3.74.04,2.12-.02,4.24-.09,6.36-.06,1.18-.08,2.41-.05,3.65.06,2.67-.14,5.37-.19,8.03,0,.94,0,1.92,0,2.86-.04.79-.09,1.57-.13,2.36-.02.34-.28.63-.74.7-.4.08-.85.15-1.25.18-.65.02-1.29-.02-1.89,0-.35-.02-.69-.03-.99-.05-.4.03-.69-.13-.87-.48-.18-.35-.41-.71-.6-1.06-.74-1.22-1.39-2.47-2.14-3.64-.61-.96-1.12-2.01-1.69-3.02-.57-.96-1.19-1.86-1.76-2.87-1.34-2.21-2.74-4.41-4.16-6.56-.1-.1-.15-.2-.3-.4,0,.2,0,.29-.01.39-.06,2.16-.11,4.32-.17,6.53.01,1.48-.03,3-.02,4.52.01,1.43-.03,2.8-.01,4.18,0,.34-.12.64-.27.93-.21.34-.51.48-.91.52-.6.03-1.19.12-1.79.15-.94.03-1.83,0-2.78-.06-.6-.01-.84-.31-.88-.9.02-.98-.02-2.01,0-2.99-.07-2.06-.14-4.17-.15-6.24-.02-1.87,0-3.73.03-5.55.03-2.06.01-4.12.04-6.18,0-3.44.05-6.92.1-10.35-.04-.69-.08-1.42-.07-2.11,0-.29.11-.59.17-.93.05-.2.21-.29.48-.29.26,0,.53,0,.79,0,.68-.04,1.37-.03,2.1-.07.79.01,1.58.12,2.37,0,.32-.04.63.06.73.41.29.99.9,1.84,1.34,2.73.29.74.74,1.44,1.09,2.19.59,1.1,1.13,2.19,1.66,3.34.44.85.82,1.75,1.26,2.6.05.15.15.25.19.4.81,1.99,1.87,3.9,2.87,5.81.52.96,1.1,1.86,1.67,2.82,0,.05.05.05.1.1.02-.02.04-.03.05-.05-.02-.69,0-1.38-.01-2.02Z"/>
      <path class="cls-1" d="m216.63,38.02c-.93-.18-1.86-.36-2.81-.35-.7.04-1.39-.07-2.08-.12-.59-.05-.91-.42-.92-.97.02-.89-.05-1.84.07-2.72.25-1.86.44-3.68.59-5.5.26-3.2.46-6.41.67-9.61.12-2.17.2-4.4.31-6.57.02-.89.14-1.77.26-2.61.1-.59.14-1.13.08-1.73,0-1.29.05-2.62.26-3.94.07-.19.08-.34.04-.54.03-.39.21-.68.59-.85.83-.43,1.67-.47,2.57-.45.31.02.63.1.94.12.78.11,1.62.18,2.4.3.26.02.53,0,.85-.03.26.02.53,0,.85-.03,1.11.05,2.16.09,3.26.19,1.05.1,2.15.15,3.18.5.31.08.67.16,1.03.25.77.23,1.48.55,2.06,1,.74.52,1.14,1.21,1.53,1.9.63.96.99,2,1.29,3.03.31,1.43.46,2.89.24,4.32-.12.63-.19,1.23-.31,1.81-.18,1.08-.6,2.08-1.12,3.02-.5.74-1.08,1.38-1.94,1.68-.11.04-.22.13-.28.17-.33.21-.28.22,0,.5.19.17.33.28.46.5.77.98,1.31,2.09,1.58,3.32.41,1.84.24,3.67-.07,5.48-.13.73-.32,1.46-.5,2.19-.45,2.19-1.52,4.07-3.29,5.52-.83.71-1.76,1-2.85.99-.55,0-1.15.03-1.75.02-.75-.03-1.54-.06-2.03-.11-1.92-.24-3.55-.39-5.17-.69Zm3.62-24.71c-.03.89-.12,1.83-.2,2.71,0,.5,0,.55.52.54.52-.05,1.04-.06,1.55-.06.77.02,1.6.05,2.37.08.67.02,1.22-.33,1.68-.78.17-.13.24-.37.27-.62.13-1.23-.06-2.45-.57-3.64-.17-.41-.5-.75-.89-.98-.64-.41-1.31-.52-1.98-.53-.78-.02-1.52.01-2.24,0-.26.03-.27.13-.29.32-.09.94-.17,1.82-.2,2.76,0,.1-.01.15-.02.2Zm-.78,12.9c-.11,1.73-.17,3.46-.28,5.19-.03.3.02.3.27.37.4.04.75.07,1.1.05,1.3.07,2.57-.05,3.8-.67.85-.41,1.42-1.05,1.56-1.88.3-1.46.2-2.92-.47-4.33-.21-.47-.52-.9-1.06-1.15-.54-.2-1.09-.36-1.65-.41-.91-.09-1.83-.12-2.69-.2q-.41.01-.45.41c-.03.84-.11,1.73-.14,2.57,0,.05,0,.05,0,.05Z"/>
      <path class="cls-1" d="m233.55,36.8c.37-.6.65-1.27.93-1.94.88-1.89,1.58-3.86,2.27-5.77.77-2.16,1.65-4.3,2.53-6.39.36-.86.67-1.67.99-2.53.36-.81.67-1.62,1.04-2.47.5-1.04,1-2.13,1.5-3.17.45-1.04.9-2.09,1.34-3.08.09-.29.18-.58.27-.87.3-.66.54-1.33.84-2,.43-.85.91-1.69,1.4-2.58.15-.33.44-.49.92-.53.69,0,1.37.08,2.05.17,1.21.11,2.41.27,3.62.39.42.06.61.19.83.52.26.39.41.81.45,1.27.14.82.4,1.61.38,2.47-.01.8.14,1.58.23,2.35.09.82.13,1.58.23,2.35-.01.1.03.16-.03.2-.1.64.02,1.26.14,1.88.1,1.07.26,2.1.41,3.18.05.36.1.72.19,1.14.19,1.79.44,3.59.67,5.44.12,1.23.3,2.41.41,3.64.11,1.58.22,3.16.38,4.75.11.92.27,1.86.38,2.73.06.56.07,1.12.13,1.69.07.21.08.47.1.67.05.61.1,1.23.1,1.88.02.51-.39.85-.93.76-1.09-.13-2.18-.2-3.23-.26-.15-.02-.3,0-.44-.07-.83-.13-1.68-.16-2.49-.13-.6.01-.74-.06-.85-.68-.14-.77-.27-1.6-.36-2.37-.08-.51-.1-1.02-.14-1.48-.01-.25-.11-.32-.3-.35-.45-.06-.95-.09-1.39-.15-1.28-.23-2.62-.42-3.9-.65-.5-.07-.93-.18-1.43-.24-.34-.1-.35-.05-.49.24-.43,1-.91,1.93-1.39,2.87-.13.23-.31.46-.48.64-.18.23-.45.34-.79.3-1.08-.19-2.2-.38-3.29-.52-.49-.11-.99-.12-1.47-.23-.44-.05-.84-.1-1.27-.2-.35-.04-.57-.27-.63-.62-.08-.21-.05-.46-.07-.71.07-.59.33-1.06.63-1.52Zm15.16-15.78s-.07.14-.14.23c-.15.33-.31.71-.41,1.1-.36.7-.72,1.46-.92,2.18-.25.72-.51,1.44-.91,2.13-.19.27-.34.61-.53.88-.06.09-.08.19-.14.28,1.3.23,2.55.45,3.8.68.04-.65-.02-1.31-.13-1.93-.23-.94-.35-1.91-.37-2.86-.08-.92-.11-1.77-.14-2.68-.05,0-.05,0-.1-.01Z"/>
      <path class="cls-1" d="m263.56,31.94c.2-1.48.35-3.03.56-4.56.09-.84.24-1.73.39-2.62.17-1.34.34-2.67.51-4.01.47-3.41,1.03-6.8,1.7-10.18.08-.49.22-1.02.31-1.57.04-.25.17-.38.45-.43.38-.04.73.12,1.08.23.35.11.66.21.96.31.36.06.72.17,1.08.23.52.09,1,.12,1.52.16.31.05.61.16.98.22,1.4.24,2.8.54,4.14.78,1.51.27,3.02.5,4.47.77.52.1,1.02.29,1.51.54,1.8.95,2.89,2.49,3.66,4.28.19.39.2.86.33,1.29.44,2.33.49,4.64.02,6.95-.18.88-.36,1.76-.58,2.59-.35,1.46-1.05,2.8-1.78,4.08-.42.78-1.08,1.47-1.73,2.1-.2.22-.43.32-.67.48-.35.19-.75.36-1.14.54-.17.07-.19.17-.17.32.21.5.38.94.55,1.39.12.43.24.86.35,1.35.2.81.39,1.66.58,2.52.03.11.06.22.04.31.12.94.33,1.91.62,2.78.27.93.45,1.78.62,2.69.06.47.06.93.02,1.38-.03.4-.2.47-.57.55-.54.14-1.07.03-1.67-.04-.99-.15-1.94-.19-2.93-.34-.69-.09-1.37-.27-2-.4-.24-.1-.41-.23-.51-.51-.37-.99-.63-2.01-.83-3.06-.1-.53-.36-1.04-.56-1.58-.26-.76-.58-1.54-.84-2.35-.23-.7-.35-1.39-.53-2.08-.08-.42-.16-.79-.25-1.16,0-.25-.1-.32-.35-.32-.71-.08-1.36-.15-2.07-.22q-.41-.02-.48.37c-.46,2.86-.99,5.76-1.5,8.61-.04.2-.07.39-.1.54-.09.19-.21.32-.45.27-1.3-.08-2.64-.17-3.96-.45-.68-.12-1.43-.2-2.11-.31-.4-.02-.52-.19-.46-.53.34-2.02.69-4.08,1.03-6.1-.05,0-.05,0-.1-.02.27-1.93.6-3.84.87-5.77Zm8.9-7.32c-.26,1.17-.54,2.39-.75,3.57q-.08.44.32.51c.65.12,1.36.25,2.01.37.1.02.2.04.31,0,.64-.08,1.26-.07,1.87-.26.5-.16.96-.38,1.38-.66.61-.45,1.04-1.08,1.33-1.73.47-1.08.59-2.23.76-3.42.08-.39.09-.75.17-1.14.06-.6-.16-1.1-.22-1.62-.13-.69-.4-1.24-.83-1.78-.33-.52-.79-.86-1.4-1.02-.75-.24-1.52-.38-2.31-.42-.32,0-.62-.06-.99-.08q-.26-.05-.31.25c-.33,1.82-.67,3.69-1,5.55-.11.59-.22,1.23-.34,1.87Z"/>
      <path class="cls-1" d="m296.31,29.63c.4-1.81.66-3.7,1.02-5.58.17-.78.36-1.62.54-2.45q.09-.39-.27-.47c-1.03-.17-2-.38-3.04-.55-.82-.17-1.63-.39-2.44-.57-.31-.06-.43-.24-.36-.59.06-.29.17-.58.24-.87.32-1.52.63-2.99.94-4.46.05-.25.21-.47.36-.69.26-.2.48-.21.74-.15.61.18,1.22.36,1.84.49,1.8.43,3.6.87,5.39,1.32,1.91.42,3.82.85,5.71,1.34,1.79.46,3.58.94,5.37,1.42.51.12.63.31.51.8-.38,1.56-.75,3.08-1.12,4.59-.14.59-.33.7-.92.66-1-.09-1.95-.16-2.93-.34-.89-.11-1.72-.25-2.58-.45-.42-.05-.41-.09-.51.35-.25,1.08-.5,2.15-.8,3.21-.38,1.61-.85,3.2-1.28,4.8-.49,1.9-.94,3.8-1.4,5.76-1.03,4.19-2.02,8.45-3.06,12.69-.05.2-.14.38-.19.57-.11.23-.29.35-.54.34-.4-.04-.85-.09-1.3-.15-.34-.08-.74-.12-1.08-.2-.29-.07-.58-.13-.87-.2-.49-.11-.97-.22-1.47-.28-.68-.15-.88-.4-.71-1.19.56-2.75,1.13-5.55,1.74-8.29.39-1.76.77-3.48,1.16-5.24.05.01.05.01.1.02.41-1.86.84-3.77,1.2-5.64Z"/>
      <path class="cls-1" d="m328.11,58.52c-1.09-.21-2.08-.55-3.15-.81-1.92-.55-3.85-1.09-5.78-1.62-1.41-.33-2.84-.62-4.19-.98-1.7-.4-3.38-.89-5.07-1.33-.48-.12-.97-.25-1.45-.37-.58-.15-.77-.4-.63-.99.14-.74.05-.61.25-1.39.18-.94.42-1.87.7-2.78.12-.49.24-.98.4-1.4.05-.2.18-.32.27-.45.13-.12.33-.28.53-.44,1.78-1.47,3.57-2.93,5.34-4.5,1.27-1.02,2.5-2.1,3.67-3.31.38-.42.84-.77,1.27-1.18.09-.13.21-.2.3-.34,1.45-1.02,2.65-2.32,3.99-3.47,1.35-1.2,2.68-2.51,4.05-3.76.01-.05.08-.08.1-.18-.15-.04-.25-.07-.35-.1-1.49-.3-2.97-.65-4.47-.94-2.06-.39-4.14-.93-6.19-1.55-.15-.04-.3-.08-.46-.12-.35-.09-.42-.26-.45-.58-.02-.78.22-1.5.44-2.17.32-1.27.61-1.97.98-3.23.01-.05.03-.1.04-.15.08-.55.28-.66.81-.63.53.08,1.06.11,1.58.24,1.8.46,3.54.91,5.28,1.37,1.98.58,3.91,1.15,5.91,1.69.93.2,1.93.38,2.88.54.36.1.71.2,1.07.3.85.29,1.72.54,2.56.88.46.13.53.26.39.74-.14.48-.28.97-.42,1.45-.46,1.39-.78,2.3-1.18,3.7-.18.63-.58,1.04-1.02,1.44-1.82,1.58-3.56,3.13-5.31,4.73-.37.37-.66.81-1.07,1.11-1.1,1.05-2.19,2.06-3.28,3.12-.65.61-1.3,1.21-2.01,1.69-.45.29-.76.63-1.16.94-1.32,1.15-2.64,2.31-4.07,3.33-.63.4-1.18.88-1.78,1.35-.06.04-.07.08-.09.13.29.08.54.14.78.21,1.33.31,2.61.6,3.9.9,1.37.38,2.72.81,4.08,1.19.68.19,1.36.39,2.09.6.63.18,1.28.32,1.95.56.62.23.71.63.57,1.11-.06.19-.05.35-.04.51-.14.48-.28.97-.41,1.41-.08.08-.17.21-.2.31-.21.73-.15.53-.37,1.26-.04.15-.02.26-.02.42-.1.34-.2.68-.3,1.02-.33.43-.79.56-1.28.47Z"/>
    </g>
    <g>
      <path class="cls-2" d="m123.71,71.72c.31.15.49.39.54.71.05.32-.04.62-.26.88-.15.22-.35.35-.59.37-.24.02-.48-.03-.74-.16-.39-.21-.82-.38-1.27-.5s-.93-.19-1.42-.19c-.8,0-1.52.13-2.15.4-.64.27-1.19.64-1.65,1.11-.46.48-.82,1.04-1.06,1.7-.25.66-.37,1.39-.37,2.18,0,.88.13,1.66.4,2.34.27.68.63,1.25,1.1,1.72s1.02.82,1.66,1.05c.64.23,1.33.35,2.07.35.48,0,.94-.06,1.4-.17s.88-.28,1.29-.5c.25-.13.5-.17.74-.14s.44.16.61.37c.22.29.31.6.25.9-.06.31-.23.53-.53.67-.35.2-.74.37-1.16.51-.42.15-.85.26-1.28.34-.43.08-.88.12-1.32.12-1.01,0-1.96-.17-2.87-.5-.9-.34-1.7-.83-2.39-1.47-.69-.64-1.24-1.44-1.65-2.37-.41-.94-.61-2.01-.61-3.21,0-1.08.19-2.07.57-2.98s.91-1.7,1.59-2.37c.68-.67,1.47-1.19,2.38-1.56s1.9-.56,2.98-.56c.67,0,1.33.08,1.96.25.64.17,1.23.41,1.78.71Z"/>
      <path class="cls-2" d="m140.03,78.23c0,1.06-.17,2.05-.52,2.97-.35.92-.84,1.72-1.48,2.41-.64.69-1.39,1.22-2.26,1.61s-1.82.58-2.86.58-1.98-.19-2.85-.58c-.86-.38-1.61-.92-2.25-1.61-.64-.69-1.13-1.49-1.48-2.41-.35-.92-.53-1.91-.53-2.97s.17-2.05.53-2.97c.35-.92.84-1.72,1.48-2.4.64-.69,1.39-1.22,2.25-1.61.86-.39,1.81-.58,2.85-.58s1.99.19,2.86.58c.87.38,1.62.92,2.26,1.61.64.69,1.13,1.49,1.48,2.4.35.92.52,1.91.52,2.97Zm-2.27,0c0-1.04-.21-1.97-.63-2.79-.42-.83-.99-1.48-1.71-1.95-.72-.48-1.56-.71-2.51-.71s-1.77.24-2.5.71c-.73.48-1.29,1.12-1.7,1.94-.41.82-.61,1.75-.61,2.8s.2,1.97.61,2.79c.41.83.97,1.48,1.7,1.95.73.48,1.56.71,2.5.71s1.79-.24,2.51-.71c.72-.48,1.29-1.13,1.71-1.95.42-.83.63-1.76.63-2.79Z"/>
      <path class="cls-2" d="m143.7,70.85c.17,0,.34.04.52.14.18.09.32.21.42.35l5.33,8.13-.9-.04,5.44-8.08c.22-.32.51-.48.86-.48.28,0,.53.1.75.3.22.2.33.46.33.77v12.58c0,.31-.1.56-.3.77-.2.2-.47.3-.79.3s-.58-.1-.79-.3c-.2-.2-.3-.46-.3-.77v-10.65l.67.15-4.62,7.04c-.1.13-.23.23-.39.33-.16.09-.32.14-.47.14s-.31-.04-.47-.14c-.16-.09-.29-.2-.39-.33l-4.45-6.93.5-.84v11.23c0,.31-.09.56-.28.77-.19.2-.44.3-.75.3s-.54-.1-.72-.3c-.19-.2-.28-.46-.28-.77v-12.58c0-.28.11-.53.33-.75.22-.22.47-.33.77-.33Z"/>
      <path class="cls-2" d="m165.77,70.88c.74,0,1.43.2,2.06.6s1.13.94,1.51,1.63c.38.69.57,1.46.57,2.33s-.19,1.61-.57,2.3c-.38.69-.88,1.25-1.51,1.66s-1.32.62-2.06.62h-4.05l.17-.31v4.81c0,.31-.09.56-.28.77-.19.2-.44.3-.75.3s-.54-.1-.72-.3c-.19-.2-.28-.46-.28-.77v-12.56c0-.31.1-.56.3-.77s.46-.3.77-.3h4.85Zm0,7.12c.36,0,.7-.12,1-.36.3-.24.55-.55.74-.94.19-.39.28-.81.28-1.26,0-.48-.09-.9-.28-1.28-.19-.38-.43-.68-.74-.91-.3-.23-.63-.35-1-.35h-4.1l.21-.29v5.67l-.19-.27h4.07Z"/>
      <path class="cls-2" d="m185.87,78.23c0,1.06-.18,2.05-.53,2.97-.35.92-.84,1.72-1.48,2.41-.64.69-1.39,1.22-2.26,1.61s-1.82.58-2.86.58-1.98-.19-2.85-.58-1.61-.92-2.25-1.61c-.64-.69-1.13-1.49-1.48-2.41-.35-.92-.53-1.91-.53-2.97s.18-2.05.53-2.97.84-1.72,1.48-2.4c.64-.69,1.39-1.22,2.25-1.61.86-.39,1.81-.58,2.85-.58s1.99.19,2.86.58c.87.38,1.62.92,2.26,1.61.64.69,1.13,1.49,1.48,2.4s.53,1.91.53,2.97Zm-2.27,0c0-1.04-.21-1.97-.63-2.79s-.99-1.48-1.71-1.95c-.72-.48-1.56-.71-2.51-.71s-1.77.24-2.5.71c-.73.48-1.29,1.12-1.7,1.94-.41.82-.61,1.75-.61,2.8s.2,1.97.61,2.79.97,1.48,1.7,1.95c.73.48,1.56.71,2.5.71s1.79-.24,2.51-.71c.72-.48,1.29-1.13,1.71-1.95s.63-1.76.63-2.79Z"/>
      <path class="cls-2" d="m192.97,85.79c-1.01,0-1.9-.14-2.69-.41-.78-.27-1.53-.73-2.25-1.38-.15-.13-.27-.27-.35-.43-.08-.16-.12-.33-.12-.49,0-.27.1-.5.29-.71.2-.21.44-.32.74-.32.22,0,.43.08.63.23.53.49,1.09.86,1.67,1.11s1.26.38,2.05.38c.56,0,1.07-.09,1.54-.27.47-.18.84-.43,1.12-.74.28-.31.42-.66.42-1.07-.01-.5-.16-.92-.44-1.24s-.69-.59-1.23-.82c-.54-.22-1.19-.41-1.94-.55-.7-.14-1.33-.32-1.89-.55-.56-.22-1.03-.51-1.42-.85-.39-.34-.68-.75-.89-1.23-.21-.48-.32-1.02-.32-1.64,0-.85.22-1.59.67-2.22.45-.62,1.06-1.1,1.83-1.44.77-.34,1.64-.5,2.6-.5.88,0,1.71.14,2.48.41.77.27,1.39.64,1.87,1.1.34.29.5.61.5.95,0,.27-.1.5-.3.71-.2.21-.44.32-.7.32-.2,0-.36-.06-.5-.17-.22-.24-.53-.45-.9-.64-.38-.19-.78-.35-1.21-.47-.43-.13-.84-.19-1.23-.19-.63,0-1.17.09-1.62.26-.45.18-.79.41-1.03.71-.24.3-.36.66-.36,1.08,0,.48.14.86.41,1.17.27.3.65.55,1.14.74.49.19,1.05.36,1.68.51.77.17,1.46.36,2.07.57.61.21,1.12.48,1.54.81.42.33.74.74.97,1.23.22.49.34,1.1.34,1.83,0,.84-.24,1.58-.71,2.21s-1.1,1.12-1.88,1.47c-.78.35-1.64.53-2.59.53Z"/>
      <path class="cls-2" d="m201.81,70.88h7.25c.31,0,.56.1.77.29.2.2.3.44.3.74s-.1.53-.3.71c-.2.18-.46.27-.77.27h-6.32l.21-.36v4.7l-.19-.21h5.36c.31,0,.56.1.77.29s.3.45.3.76-.1.53-.3.71c-.2.18-.46.27-.77.27h-5.31l.15-.19v4.85l-.15-.17h6.26c.31,0,.56.1.77.3.2.2.3.44.3.7,0,.29-.1.54-.3.72-.2.19-.46.28-.77.28h-7.25c-.31,0-.56-.1-.77-.3-.2-.2-.3-.46-.3-.77v-12.56c0-.31.1-.56.3-.77s.46-.3.77-.3Z"/>
      <path class="cls-2" d="m213.99,85.58c-.34,0-.63-.1-.88-.3-.25-.2-.38-.46-.38-.77v-12.56c0-.31.1-.56.3-.77s.46-.3.77-.3h5.92c.76,0,1.45.19,2.08.56s1.14.88,1.52,1.53c.38.65.58,1.4.58,2.26,0,.56-.11,1.09-.34,1.6s-.52.95-.9,1.34c-.38.39-.8.69-1.28.9l-.23-.42c.43.17.81.4,1.13.68s.58.62.77,1.01c.19.38.29.82.3,1.29.04.43.08.79.12,1.08s.09.52.16.7c.07.18.2.32.38.42.25.14.41.35.47.63.06.28,0,.53-.18.76-.13.17-.29.28-.48.33s-.39.06-.59.02c-.2-.03-.36-.09-.48-.16-.24-.14-.47-.34-.69-.6-.22-.26-.41-.62-.55-1.08-.14-.46-.21-1.07-.21-1.83,0-.35-.06-.65-.17-.89-.11-.25-.27-.45-.46-.62-.2-.17-.43-.29-.69-.36-.27-.07-.56-.11-.88-.11h-4.45l.29-.44v5.02c0,.31-.08.56-.25.77-.17.2-.4.3-.69.3Zm.67-7.5h5.02c.32-.01.63-.14.92-.38s.54-.57.74-1c.2-.43.29-.91.29-1.44,0-.67-.2-1.24-.6-1.69-.4-.45-.87-.68-1.42-.68h-4.91l.23-.53v6.15l-.27-.44Z"/>
    </g>
  </g>
</svg>